<?xml version="1.0" encoding="utf-8"?>
<!-- Generator: Adobe Illustrator 16.0.0, SVG Export Plug-In . SVG Version: 6.00 Build 0)  -->
<!DOCTYPE svg PUBLIC "-//W3C//DTD SVG 1.1//EN" "http://www.w3.org/Graphics/SVG/1.1/DTD/svg11.dtd">
<svg version="1.1" id="Layer_1" xmlns="http://www.w3.org/2000/svg" xmlns:xlink="http://www.w3.org/1999/xlink" x="0px" y="0px"
	 width="168.4px" height="168.398px" viewBox="0 0 168.4 168.398" enable-background="new 0 0 168.4 168.398" xml:space="preserve">
<g opacity="0.3">
	<defs>
		<rect id="SVGID_135_" x="-1568.107" y="-592.034" opacity="0.3" width="1366.566" height="651.97"/>
	</defs>
	<clipPath id="SVGID_2_">
		<use xlink:href="#SVGID_135_"  overflow="visible"/>
	</clipPath>
	<g clip-path="url(#SVGID_2_)">
		<g>
			<g>
				<path fill="#FFFFFF" d="M-5.732,71.084c0.029-0.506,0.121-1.006,0.258-1.502c0.146-0.488,0.326-0.983,0.605-1.439
					c0.141-0.229,0.305-0.452,0.498-0.656c0.193-0.204,0.426-0.389,0.697-0.528c0.133-0.071,0.281-0.123,0.428-0.162
					c0.145-0.047,0.301-0.066,0.453-0.082c0.154-0.008,0.307-0.014,0.459,0.007c0.154,0.008,0.293,0.049,0.441,0.077h0.008
					l0.049,0.021c0.184,0.073,0.342,0.146,0.506,0.227c0.164,0.078,0.322,0.158,0.482,0.242c0.318,0.17,0.631,0.35,0.941,0.543
					c0.613,0.387,1.197,0.842,1.723,1.395c0.262,0.279,0.512,0.586,0.707,0.946c0.102,0.177,0.191,0.364,0.26,0.568
					c0.035,0.099,0.068,0.203,0.09,0.313c0.023,0.107,0.049,0.214,0.055,0.324c0.027,0.222,0.018,0.449-0.014,0.674
					c-0.035,0.223-0.102,0.432-0.182,0.637c-0.092,0.195-0.193,0.387-0.318,0.552c-0.113,0.177-0.256,0.312-0.383,0.468
					l-0.039,0.047l-0.057,0.037c-0.557,0.352-1.109,0.715-1.674,1.054c-0.563,0.344-1.127,0.691-1.699,1.016l0.072-0.063
					c-0.074,0.078-0.133,0.123-0.201,0.176c-0.064,0.052-0.131,0.101-0.201,0.143c-0.137,0.091-0.289,0.163-0.443,0.226
					c-0.156,0.053-0.318,0.094-0.484,0.114l-0.246,0.012c-0.084-0.003-0.166-0.012-0.246-0.023c-0.08-0.006-0.156-0.035-0.234-0.054
					c-0.084-0.018-0.154-0.05-0.223-0.085c-0.072-0.035-0.148-0.064-0.211-0.105l-0.191-0.132c-0.127-0.082-0.229-0.199-0.34-0.297
					c-0.092-0.111-0.188-0.228-0.279-0.341l0.357,0.251c0.127,0.064,0.244,0.143,0.377,0.192l0.191,0.079
					c0.063,0.022,0.129,0.031,0.195,0.046c0.063,0.017,0.125,0.029,0.193,0.026c0.063,0,0.129,0.02,0.191,0.01
					c0.064-0.01,0.129-0.01,0.189-0.018l0.182-0.044c0.119-0.04,0.232-0.089,0.338-0.155c0.107-0.066,0.211-0.135,0.303-0.217
					c0.047-0.044,0.092-0.085,0.137-0.131c0.041-0.039,0.086-0.095,0.107-0.125l0.012-0.016l0.057-0.051
					c0.516-0.416,1.041-0.817,1.564-1.215c0.521-0.406,1.055-0.793,1.584-1.182l-0.094,0.08c0.088-0.119,0.191-0.229,0.256-0.351
					c0.08-0.118,0.127-0.244,0.184-0.364c0.039-0.121,0.076-0.244,0.088-0.367c0.014-0.121,0.016-0.244-0.004-0.367
					c-0.006-0.063-0.018-0.127-0.031-0.187c-0.014-0.063-0.033-0.127-0.061-0.19c-0.041-0.125-0.104-0.25-0.174-0.375
					c-0.146-0.246-0.324-0.496-0.533-0.727C0.521,69.568,0,69.16-0.541,68.773c-0.266-0.193-0.549-0.38-0.834-0.555
					c-0.143-0.084-0.291-0.17-0.434-0.252l-0.436-0.238l0.063,0.024c-0.1-0.026-0.193-0.068-0.291-0.083
					c-0.098-0.026-0.193-0.03-0.291-0.041c-0.092,0.006-0.189,0.002-0.283,0.024c-0.094,0.014-0.189,0.037-0.281,0.074
					c-0.094,0.035-0.184,0.082-0.275,0.127c-0.094,0.053-0.182,0.113-0.268,0.178c-0.174,0.135-0.334,0.299-0.482,0.477
					c-0.303,0.355-0.559,0.771-0.785,1.207C-5.365,70.152-5.559,70.612-5.732,71.084z"/>
			</g>
			<g>
				<path fill="#FFFFFF" d="M2.33,71.43c0.191,0.485,0.311,0.994,0.389,1.508c0.076,0.519,0.105,1.041,0.094,1.573
					c-0.008,0.265-0.027,0.531-0.066,0.796c-0.014,0.135-0.035,0.27-0.063,0.399c-0.031,0.131-0.053,0.265-0.086,0.398l-0.111,0.392
					c-0.041,0.133-0.098,0.26-0.143,0.391c-0.09,0.262-0.232,0.504-0.355,0.757l0.049-0.102c-0.059,0.143-0.094,0.217-0.148,0.31
					c-0.049,0.096-0.105,0.174-0.16,0.258c-0.111,0.159-0.229,0.318-0.367,0.455c-0.133,0.145-0.281,0.268-0.432,0.389
					c-0.146,0.123-0.313,0.217-0.471,0.322c-0.168,0.088-0.336,0.168-0.508,0.252l-0.527,0.177c-0.174,0.049-0.355,0.08-0.533,0.117
					c-0.18,0.041-0.359,0.041-0.533,0.059c-0.182,0.012-0.361,0.031-0.535,0.016l-0.525-0.028c-0.174-0.01-0.344-0.05-0.516-0.08
					c-0.168-0.033-0.338-0.053-0.506-0.094c-0.168-0.043-0.33-0.094-0.49-0.146c-0.162-0.051-0.326-0.088-0.486-0.155
					c-0.311-0.134-0.621-0.265-0.92-0.415c0.34,0.004,0.67,0.028,1,0.049c0.162,0.017,0.326,0.009,0.488,0.011
					c0.162,0.005,0.326,0.005,0.488,0.012c0.158,0.004,0.318-0.012,0.479-0.014c0.154-0.013,0.314-0.009,0.471-0.026l0.463-0.057
					c0.156-0.006,0.305-0.049,0.453-0.078c0.148-0.035,0.299-0.047,0.438-0.104c0.141-0.047,0.285-0.084,0.424-0.133l0.395-0.169
					l0.371-0.21c0.111-0.086,0.232-0.153,0.34-0.246c0.104-0.087,0.209-0.174,0.297-0.277c0.096-0.093,0.178-0.203,0.258-0.307
					c0.07-0.099,0.146-0.242,0.176-0.295l0.049-0.104l0.168-0.292c0.061-0.099,0.105-0.206,0.156-0.308
					c0.043-0.105,0.104-0.205,0.141-0.313l0.129-0.329c0.158-0.441,0.289-0.903,0.391-1.38l0.072-0.36
					c0.025-0.119,0.045-0.24,0.064-0.361c0.02-0.123,0.041-0.246,0.055-0.368l0.049-0.372C2.254,72.451,2.299,71.947,2.33,71.43z"/>
			</g>
		</g>
		<g>
			<g>
				<path fill="#FFFFFF" d="M7.625,9.85c5.373-0.013,10.742-0.058,16.115-0.11c5.371-0.054,10.74-0.136,16.111-0.233l8.055-0.162
					l8.053-0.192c5.367-0.144,10.736-0.32,16.102-0.535c5.367-0.214,10.73-0.482,16.088-0.781c5.359-0.309,10.713-0.68,16.059-1.17
					c2.668-0.246,5.336-0.529,7.994-0.865c2.658-0.34,5.307-0.732,7.928-1.246c1.307-0.265,2.607-0.554,3.883-0.914l0.947-0.287
					l0.928-0.326c0.693-0.239,1.355-0.396,2.064-0.491c0.701-0.089,1.438-0.12,2.188,0.077c0.373,0.102,0.754,0.272,1.076,0.543
					c0.326,0.267,0.574,0.638,0.709,1.023c0.277,0.773,0.215,1.543,0.096,2.244c-0.131,0.705-0.348,1.371-0.592,2.015l0.014-0.036
					c-0.443,1.361-1.027,2.599-1.707,3.816c-0.695,1.202-1.488,2.35-2.408,3.396c-1.822,2.1-4.17,3.813-6.838,4.709
					c-0.332,0.113-0.668,0.222-1.008,0.304l-0.492,0.131l-0.502,0.126c-0.664,0.161-1.334,0.309-2,0.452
					c-1.334,0.288-2.67,0.547-4.014,0.788c-2.682,0.484-5.373,0.898-8.07,1.259c-2.697,0.362-5.402,0.684-8.107,0.944
					c-2.709,0.266-5.42,0.494-8.133,0.677l-2.037,0.138l-2.037,0.116c-1.357,0.08-2.717,0.134-4.074,0.196
					c-2.717,0.116-5.436,0.187-8.152,0.228c-2.721,0.039-5.438,0.045-8.16,0.02c-2.715-0.028-5.434-0.073-8.152-0.162l-2.037-0.063
					l-2.035-0.085c-1.359-0.057-2.719-0.105-4.072-0.188l-4.074-0.223l-4.066-0.27c-2.709-0.207-5.42-0.404-8.125-0.67l-2.027-0.192
					c-0.678-0.07-1.355-0.109-2.037-0.219c-1.355-0.209-2.686-0.539-3.988-0.945c-2.605-0.818-5.102-1.969-7.416-3.406
					c-2.316-1.436-4.451-3.156-6.354-5.104l0.002,0.006c-0.33-0.29-0.635-0.598-0.926-0.922C8.1,12.938,7.83,12.59,7.602,12.219
					c-0.223-0.369-0.42-0.775-0.461-1.213c-0.01-0.107-0.014-0.221,0.006-0.328c0.014-0.107,0.037-0.217,0.086-0.315
					c0.039-0.102,0.098-0.195,0.164-0.281C7.459,9.996,7.543,9.924,7.625,9.85z M7.625,9.85C7.547,9.928,7.467,10,7.402,10.086
					c-0.068,0.087-0.125,0.18-0.16,0.281c-0.043,0.098-0.066,0.205-0.078,0.313c-0.018,0.108-0.012,0.217,0,0.322
					c0.049,0.433,0.25,0.83,0.477,1.193c0.471,0.727,1.088,1.356,1.738,1.915l0.004,0.004l0,0c1.936,1.9,4.08,3.586,6.402,4.979
					c2.318,1.398,4.811,2.503,7.396,3.281c1.297,0.382,2.615,0.689,3.947,0.876c0.662,0.095,1.34,0.129,2.018,0.189l2.029,0.164
					c1.354,0.109,2.705,0.216,4.061,0.301l4.061,0.281l4.064,0.236l4.066,0.191c1.357,0.068,2.713,0.105,4.07,0.154l2.033,0.066
					l2.037,0.043c2.709,0.068,5.426,0.09,8.139,0.097c2.711,0,5.426-0.029,8.137-0.088c2.713-0.065,5.424-0.152,8.133-0.273
					c1.354-0.064,2.711-0.121,4.064-0.208l2.031-0.12L88.1,24.14c2.707-0.187,5.408-0.422,8.107-0.697
					c2.695-0.268,5.389-0.596,8.07-0.961c2.688-0.367,5.363-0.785,8.029-1.275c1.332-0.239,2.658-0.502,3.982-0.791
					c0.656-0.143,1.314-0.295,1.969-0.451l0.486-0.125l0.492-0.133c0.32-0.079,0.629-0.18,0.939-0.287
					c2.492-0.844,4.686-2.448,6.414-4.445c0.869-0.995,1.623-2.094,2.285-3.245c0.652-1.15,1.227-2.383,1.627-3.605l0.01-0.03
					l0.004-0.01c0.232-0.604,0.43-1.223,0.545-1.838c0.113-0.609,0.139-1.238-0.043-1.738c-0.174-0.499-0.576-0.821-1.131-0.969
					c-0.549-0.148-1.188-0.138-1.813-0.059c-0.625,0.08-1.275,0.236-1.85,0.434l-0.975,0.34l-0.979,0.295
					c-1.313,0.365-2.637,0.656-3.963,0.922c-2.652,0.512-5.322,0.901-7.996,1.233c-2.668,0.334-5.346,0.608-8.023,0.848
					c-5.361,0.48-10.727,0.835-16.092,1.13C82.83,8.982,77.459,9.185,72.088,9.362c-5.369,0.17-10.742,0.301-16.111,0.402
					L47.918,9.89l-8.061,0.082c-5.373,0.033-10.746,0.041-16.117,0.024C18.367,9.984,12.994,9.939,7.625,9.85z"/>
			</g>
			<g>
				<path fill="#FFFFFF" d="M16.967,9.881c-0.414-0.434-0.797-0.896-1.158-1.375c-0.363-0.48-0.701-0.978-1.008-1.496
					c-0.154-0.256-0.297-0.522-0.434-0.791c-0.135-0.268-0.26-0.543-0.375-0.82c-0.109-0.279-0.215-0.562-0.297-0.854
					c-0.053-0.141-0.08-0.291-0.117-0.437c-0.039-0.146-0.066-0.295-0.086-0.445c-0.029-0.149-0.051-0.299-0.061-0.449
					c-0.008-0.153-0.029-0.302-0.025-0.457c-0.006-0.303,0.025-0.607,0.07-0.906L13.574,1.4l0.145-0.43
					c0.121-0.282,0.246-0.563,0.422-0.813l0.121-0.196l0.145-0.18c0.098-0.117,0.184-0.245,0.295-0.35l0.326-0.324
					c0.104-0.105,0.232-0.196,0.352-0.291c0.227-0.203,0.49-0.355,0.742-0.527c0.254-0.16,0.527-0.293,0.793-0.444h0.004
					l0.006-0.001c0.285-0.102,0.566-0.149,0.854-0.187c0.141-0.01,0.283-0.03,0.432-0.026c0.143-0.004,0.285-0.006,0.428,0.008
					c0.146,0.008,0.289,0.018,0.432,0.045c0.143,0.02,0.287,0.039,0.426,0.078c0.139,0.038,0.281,0.061,0.416,0.112l0.408,0.14
					l0.391,0.184c0.135,0.052,0.25,0.131,0.379,0.206c0.121,0.075,0.252,0.138,0.367,0.226l0.344,0.254
					c0.236,0.168,0.438,0.375,0.652,0.561c0.105,0.101,0.199,0.205,0.297,0.31l0.291,0.317l-0.244,0.208
					c-0.545-0.636-1.033-1.307-1.496-1.996c-0.455-0.693-0.881-1.408-1.25-2.156c-0.188-0.371-0.359-0.752-0.52-1.139
					c-0.072-0.193-0.154-0.389-0.223-0.585l-0.195-0.594l-0.16-0.614l-0.117-0.619c-0.066-0.418-0.107-0.84-0.105-1.267
					c0.004-0.425,0.043-0.854,0.137-1.273c0.025-0.214,0.111-0.415,0.168-0.622c0.055-0.209,0.158-0.401,0.244-0.595
					c0.084-0.204,0.199-0.385,0.318-0.566l0.172-0.275l0.209-0.246c0.26-0.344,0.59-0.625,0.908-0.904
					c0.344-0.254,0.684-0.516,1.061-0.711c0.357-0.229,0.75-0.385,1.135-0.563c0.383-0.172,0.787-0.289,1.18-0.437l1.211-0.334
					l-0.068,0.03c0.203-0.102,0.375-0.156,0.568-0.209c0.189-0.041,0.381-0.082,0.572-0.09c0.193-0.021,0.389-0.008,0.58-0.002
					c0.193,0.016,0.381,0.051,0.57,0.084c0.186,0.053,0.369,0.102,0.549,0.165l0.521,0.224l0.49,0.284
					c0.16,0.094,0.303,0.219,0.455,0.329l0.225,0.168l0.201,0.188l0.404,0.381c0.127,0.136,0.244,0.278,0.367,0.416
					c0.117,0.139,0.252,0.27,0.354,0.42l0.322,0.445c0.105,0.15,0.225,0.289,0.314,0.447l0.57,0.93l-0.508,0.347
					c-0.359-0.437-0.689-0.883-1.014-1.342c-0.318-0.454-0.627-0.922-0.918-1.399c-0.291-0.479-0.568-0.969-0.816-1.474
					c-0.125-0.252-0.24-0.514-0.354-0.772c-0.102-0.263-0.209-0.529-0.295-0.806c-0.049-0.133-0.082-0.274-0.119-0.412
					c-0.039-0.139-0.072-0.281-0.098-0.427c-0.025-0.143-0.051-0.287-0.061-0.438c-0.014-0.148-0.029-0.296-0.023-0.447
					c0-0.152,0.002-0.307,0.033-0.459l0.035-0.232l0.068-0.228c0.029-0.077,0.045-0.155,0.078-0.225l0.115-0.217
					c0.064-0.148,0.176-0.27,0.275-0.399c0.213-0.243,0.477-0.435,0.748-0.584c0.135-0.09,0.281-0.121,0.422-0.183
					c0.143-0.065,0.285-0.102,0.432-0.133c0.289-0.086,0.578-0.115,0.865-0.152c0.293-0.032,0.578-0.028,0.865-0.04l-0.355,0.456
					c-0.072-0.289-0.125-0.561-0.172-0.841c-0.045-0.279-0.082-0.562-0.111-0.843c-0.053-0.564-0.064-1.135-0.018-1.711l0.049-0.432
					l0.08-0.434c0.064-0.285,0.15-0.568,0.266-0.846c0.119-0.276,0.258-0.549,0.443-0.797c0.096-0.123,0.184-0.25,0.301-0.355
					c0.105-0.114,0.217-0.221,0.348-0.311l0.189-0.142l0.199-0.115l0.203-0.113l0.219-0.084c0.141-0.058,0.283-0.114,0.434-0.145
					c0.145-0.03,0.295-0.082,0.441-0.094l0.445-0.052l0.441-0.006c0.291-0.006,0.578,0.033,0.869,0.059
					c0.279,0.049,0.566,0.082,0.844,0.152c0.271,0.068,0.555,0.121,0.824,0.209c0.268,0.088,0.541,0.162,0.803,0.258l0.787,0.291
					l0.049,0.02l0.041,0.029c0.127,0.099,0.209,0.174,0.303,0.265c0.09,0.086,0.168,0.184,0.254,0.275
					c0.07,0.1,0.154,0.191,0.219,0.297c0.072,0.101,0.143,0.203,0.201,0.312c0.061,0.107,0.121,0.214,0.17,0.326
					c0.051,0.112,0.107,0.221,0.143,0.338c0.041,0.116,0.094,0.229,0.121,0.352l0.092,0.354c0.037,0.238,0.09,0.478,0.094,0.724
					c0.004,0.117,0.021,0.24,0.012,0.362l-0.012,0.362c-0.004,0.24-0.057,0.472-0.084,0.712c-0.047,0.234-0.104,0.461-0.156,0.693
					l-0.775-0.33c0.102-0.17,0.201-0.318,0.303-0.471c0.105-0.154,0.211-0.302,0.324-0.447c0.221-0.296,0.463-0.58,0.729-0.85
					c0.264-0.267,0.555-0.525,0.906-0.732c0.094-0.054,0.18-0.104,0.281-0.147c0.092-0.046,0.195-0.081,0.305-0.11
					c0.213-0.069,0.455-0.086,0.699-0.059c0.244,0.041,0.486,0.129,0.672,0.269l0.143,0.104l0.119,0.114
					c0.08,0.075,0.154,0.156,0.213,0.242c0.137,0.164,0.227,0.338,0.326,0.512c0.08,0.175,0.178,0.351,0.234,0.531
					c0.137,0.354,0.24,0.711,0.324,1.068c0.039,0.184,0.088,0.358,0.117,0.535l0.098,0.539L45.699-21.1
					c0.215-0.027,0.404-0.041,0.604-0.051c0.197-0.01,0.395-0.013,0.594-0.004c0.398,0.012,0.801,0.051,1.205,0.153
					c0.199,0.051,0.402,0.109,0.602,0.199c0.199,0.082,0.393,0.197,0.574,0.336c0.098,0.066,0.178,0.154,0.264,0.232
					c0.078,0.088,0.16,0.178,0.223,0.279c0.129,0.204,0.23,0.422,0.279,0.651c0.061,0.225,0.078,0.454,0.074,0.672
					c-0.002,0.223-0.037,0.43-0.074,0.635c-0.045,0.203-0.094,0.407-0.164,0.594c-0.066,0.194-0.129,0.383-0.215,0.561
					c-0.08,0.183-0.162,0.362-0.254,0.531c-0.088,0.178-0.18,0.35-0.281,0.514c-0.102,0.166-0.193,0.336-0.303,0.496l-0.314,0.482
					l-0.377-0.701c0.127,0,0.232,0.004,0.346,0.01c0.109,0.01,0.221,0.02,0.332,0.033c0.219,0.029,0.443,0.071,0.664,0.135
					c0.225,0.066,0.451,0.152,0.672,0.281c0.221,0.131,0.441,0.316,0.598,0.576c0.035,0.065,0.07,0.135,0.098,0.205
					c0.023,0.07,0.049,0.143,0.064,0.215c0.01,0.072,0.023,0.146,0.029,0.215l-0.002,0.215c-0.012,0.133-0.031,0.268-0.066,0.39
					c-0.029,0.122-0.078,0.234-0.119,0.346c-0.193,0.438-0.451,0.801-0.717,1.141l-0.65-0.629c0.148-0.123,0.277-0.218,0.42-0.315
					c0.139-0.093,0.281-0.189,0.428-0.273c0.293-0.172,0.602-0.32,0.928-0.441c0.324-0.117,0.668-0.209,1.031-0.252
					c0.18-0.018,0.363-0.024,0.547-0.018l0.275,0.03l0.279,0.051c0.184,0.05,0.361,0.112,0.535,0.192
					c0.166,0.083,0.334,0.175,0.477,0.29c0.156,0.103,0.287,0.232,0.42,0.361c0.121,0.129,0.244,0.264,0.346,0.407
					c0.217,0.286,0.377,0.591,0.531,0.898l0.195,0.467l0.168,0.474l-0.895,0.246c-0.076-0.326-0.137-0.637-0.199-0.96
					c-0.059-0.318-0.113-0.636-0.162-0.954c-0.098-0.64-0.174-1.285-0.227-1.932c-0.102-1.297-0.111-2.609,0.115-3.936
					c0.068-0.33,0.141-0.658,0.248-0.986c0.111-0.326,0.242-0.648,0.42-0.961c0.172-0.313,0.393-0.606,0.662-0.867
					c0.127-0.137,0.293-0.236,0.441-0.351c0.15-0.109,0.33-0.178,0.498-0.268c0.172-0.074,0.354-0.115,0.533-0.174
					c0.178-0.039,0.359-0.049,0.543-0.076c0.18-0.024,0.355,0,0.535-0.002c0.18-0.001,0.35,0.028,0.521,0.055
					c0.35,0.041,0.674,0.137,0.998,0.228c0.328,0.094,0.633,0.229,0.947,0.34l-0.617,0.672c-0.084-0.158-0.148-0.306-0.219-0.459
					c-0.064-0.154-0.127-0.306-0.188-0.459c-0.121-0.31-0.225-0.633-0.305-0.963c-0.041-0.166-0.074-0.334-0.104-0.507
					c-0.023-0.173-0.043-0.353-0.049-0.534c0-0.182,0.004-0.371,0.037-0.566c0.037-0.195,0.09-0.394,0.189-0.586
					c0.047-0.1,0.105-0.193,0.172-0.281c0.066-0.09,0.148-0.168,0.234-0.24c0.166-0.152,0.361-0.256,0.557-0.33
					c0.191-0.069,0.387-0.117,0.574-0.133c0.188-0.031,0.365-0.02,0.551-0.026c0.174,0.015,0.35,0.026,0.518,0.051
					c0.172,0.03,0.344,0.049,0.504,0.092c0.328,0.07,0.646,0.164,0.965,0.258l-0.551,0.183c0.111-0.15,0.211-0.271,0.322-0.4
					c0.111-0.12,0.229-0.245,0.352-0.362c0.242-0.236,0.52-0.459,0.863-0.635c0.18-0.082,0.371-0.158,0.604-0.182
					c0.23-0.025,0.492,0.004,0.715,0.116c0.223,0.107,0.4,0.269,0.523,0.429c0.133,0.166,0.221,0.336,0.297,0.5l0.105,0.252
					l0.078,0.243c0.057,0.169,0.086,0.331,0.127,0.493l0.084,0.485l0.059,0.482c0.064,0.639,0.082,1.272,0.086,1.903l-0.965-0.033
					c0.025-0.329,0.059-0.635,0.1-0.949c0.041-0.313,0.084-0.625,0.139-0.934c0.107-0.623,0.234-1.242,0.4-1.857
					c0.078-0.305,0.172-0.611,0.277-0.916c0.102-0.303,0.221-0.605,0.352-0.902c0.131-0.295,0.283-0.592,0.463-0.877
					c0.186-0.281,0.385-0.562,0.646-0.808l0.193-0.183l0.227-0.165c0.143-0.112,0.32-0.188,0.494-0.268
					c0.17-0.076,0.369-0.111,0.555-0.156c0.186-0.004,0.387-0.031,0.57-0.004c0.375,0.037,0.721,0.15,1.035,0.299l0.457,0.24
					l0.414,0.285c0.143,0.09,0.26,0.201,0.387,0.307c0.123,0.107,0.252,0.211,0.367,0.322c0.223,0.23,0.461,0.453,0.672,0.689
					c0.205,0.242,0.422,0.477,0.615,0.727l0.582,0.75l-0.805,0.438c-0.092-0.25-0.162-0.482-0.236-0.722
					c-0.07-0.238-0.135-0.483-0.191-0.723c-0.117-0.486-0.213-0.978-0.273-1.48c-0.027-0.254-0.047-0.506-0.059-0.764
					c-0.01-0.258,0-0.517,0.021-0.779c0.014-0.133,0.031-0.264,0.049-0.396c0.023-0.131,0.057-0.264,0.086-0.396
					c0.041-0.133,0.086-0.266,0.135-0.398c0.061-0.125,0.115-0.26,0.191-0.383c0.15-0.248,0.344-0.491,0.584-0.668l0.182-0.137
					l0.197-0.102c0.131-0.078,0.268-0.127,0.406-0.167c0.068-0.021,0.139-0.044,0.207-0.062l0.207-0.033
					c0.137-0.024,0.277-0.043,0.412-0.043s0.273-0.014,0.406,0l0.395,0.035c0.26,0.033,0.51,0.087,0.762,0.14
					c0.244,0.069,0.494,0.125,0.732,0.207c0.234,0.086,0.479,0.161,0.707,0.252l0.689,0.289l-0.184-0.039
					c0.301,0.008,0.539,0.051,0.799,0.119c0.254,0.069,0.502,0.166,0.74,0.295c0.234,0.133,0.457,0.299,0.65,0.5
					c0.197,0.196,0.35,0.434,0.475,0.678c0.115,0.248,0.203,0.504,0.248,0.766c0.023,0.126,0.047,0.258,0.051,0.386
					c0.012,0.129,0.023,0.259,0.016,0.383c0.004,0.255-0.027,0.503-0.055,0.747c-0.043,0.244-0.078,0.487-0.145,0.721
					c-0.053,0.238-0.131,0.467-0.201,0.695c-0.068,0.231-0.162,0.449-0.242,0.672c-0.088,0.223-0.186,0.438-0.277,0.659
					l-0.303,0.636c-0.102,0.214-0.217,0.418-0.326,0.63c-0.105,0.207-0.227,0.406-0.34,0.611c-0.227,0.413-0.48,0.799-0.723,1.199
					l-0.443-0.653c0.248-0.044,0.48-0.075,0.721-0.106c0.24-0.027,0.482-0.047,0.723-0.067c0.482-0.035,0.965-0.041,1.459-0.011
					c0.246,0.018,0.496,0.041,0.744,0.086c0.125,0.026,0.248,0.045,0.377,0.083c0.125,0.034,0.248,0.069,0.375,0.122
					c0.252,0.088,0.504,0.228,0.734,0.414c0.227,0.199,0.418,0.463,0.518,0.768c0.049,0.147,0.064,0.301,0.08,0.451
					c-0.004,0.142,0,0.293-0.023,0.43c-0.025,0.133-0.045,0.273-0.086,0.402l-0.129,0.371c-0.107,0.229-0.203,0.469-0.336,0.678
					l-0.188,0.322l-0.207,0.301c-0.135,0.203-0.279,0.396-0.43,0.586c-0.145,0.194-0.297,0.377-0.455,0.559
					c-0.305,0.369-0.635,0.709-0.961,1.059l-0.504-0.648c0.209-0.115,0.402-0.205,0.611-0.293c0.205-0.086,0.416-0.168,0.627-0.232
					c0.215-0.071,0.434-0.128,0.658-0.172c0.225-0.049,0.457-0.07,0.691-0.082c0.238-0.004,0.482,0.007,0.727,0.06
					c0.244,0.046,0.486,0.153,0.709,0.288c0.223,0.142,0.418,0.324,0.566,0.535c0.15,0.203,0.264,0.427,0.34,0.656
					c0.086,0.228,0.129,0.455,0.174,0.685c0.023,0.226,0.061,0.452,0.055,0.675c0.014,0.227,0.006,0.447-0.012,0.666
					c-0.004,0.22-0.033,0.437-0.057,0.654c-0.021,0.217-0.063,0.428-0.096,0.643c-0.031,0.213-0.076,0.426-0.123,0.633
					c-0.084,0.426-0.197,0.84-0.305,1.25l-0.725-0.149c0.146-0.909,0.338-1.792,0.555-2.673c0.219-0.885,0.465-1.759,0.752-2.625
					c0.289-0.862,0.609-1.717,0.996-2.545c0.383-0.832,0.824-1.645,1.369-2.395c0.545-0.751,1.203-1.453,2.045-1.939
					c0.42-0.235,0.885-0.41,1.365-0.49c0.484-0.08,0.984-0.064,1.453,0.036c0.947,0.199,1.791,0.67,2.529,1.224
					c0.375,0.271,0.719,0.578,1.055,0.893c0.332,0.312,0.646,0.648,0.957,0.982l-0.385-0.033c0.162-0.12,0.314-0.219,0.477-0.322
					c0.16-0.098,0.324-0.191,0.494-0.275c0.338-0.178,0.689-0.328,1.07-0.43c0.189-0.044,0.385-0.087,0.588-0.098
					c0.203-0.018,0.416,0,0.625,0.049c0.207,0.055,0.416,0.139,0.59,0.278c0.176,0.131,0.314,0.303,0.428,0.476
					c0.105,0.18,0.188,0.367,0.244,0.56c0.063,0.188,0.104,0.379,0.131,0.571c0.023,0.191,0.051,0.381,0.057,0.571
					c0.012,0.187,0.01,0.376,0.006,0.564c0,0.188-0.016,0.375-0.029,0.559c-0.01,0.187-0.027,0.371-0.057,0.554
					c-0.035,0.372-0.104,0.729-0.16,1.097l-0.188-0.286c0.348,0.087,0.666,0.198,0.992,0.32c0.322,0.125,0.637,0.267,0.941,0.432
					c0.307,0.162,0.605,0.352,0.883,0.575c0.137,0.114,0.27,0.235,0.391,0.372l0.174,0.207l0.156,0.229l0.129,0.248l0.096,0.266
					l0.059,0.28l0.02,0.281l-0.02,0.278c-0.016,0.093-0.039,0.182-0.059,0.271c-0.047,0.176-0.105,0.353-0.191,0.51
					c-0.072,0.164-0.168,0.317-0.266,0.463c-0.092,0.15-0.207,0.282-0.313,0.42l-0.35,0.385l-0.373,0.364l-0.213-0.325
					c0.236-0.098,0.465-0.174,0.701-0.236c0.242-0.063,0.482-0.112,0.73-0.135c0.484-0.045,1.025-0.012,1.484,0.257
					c0.111,0.065,0.223,0.145,0.313,0.238c0.098,0.091,0.182,0.19,0.252,0.3c0.078,0.108,0.131,0.227,0.184,0.344
					c0.047,0.118,0.088,0.238,0.113,0.36c0.066,0.244,0.086,0.494,0.104,0.736c0.006,0.247-0.006,0.49-0.023,0.731l-0.26-0.129
					c0.213-0.18,0.43-0.338,0.662-0.482c0.232-0.143,0.473-0.273,0.729-0.371c0.133-0.049,0.268-0.089,0.41-0.116
					c0.139-0.029,0.285-0.034,0.434-0.021c0.148,0.021,0.299,0.063,0.43,0.146c0.133,0.078,0.236,0.193,0.32,0.314
					c0.08,0.125,0.141,0.255,0.186,0.391c0.043,0.131,0.078,0.268,0.1,0.404c0.043,0.27,0.055,0.541,0.053,0.811
					c0,0.269-0.016,0.537-0.045,0.802c-0.025,0.266-0.068,0.528-0.104,0.793l-0.1-0.131c0.406,0.053,0.793,0.145,1.182,0.26
					s0.768,0.258,1.129,0.436c0.18,0.094,0.355,0.189,0.527,0.301c0.172,0.11,0.334,0.232,0.49,0.361l0.225,0.209l0.205,0.227
					l0.184,0.246l0.158,0.261l0.131,0.283c0.033,0.094,0.061,0.19,0.094,0.289c0.049,0.198,0.09,0.4,0.098,0.603
					c0.01,0.102,0.01,0.199,0.006,0.304c-0.006,0.1,0,0.202-0.018,0.303l-0.045,0.299c-0.018,0.102-0.047,0.197-0.066,0.297
					c-0.041,0.195-0.119,0.384-0.18,0.574c-0.07,0.187-0.154,0.371-0.232,0.554l-0.277,0.53l-0.311,0.515l-0.035-0.061
					c0.371-0.004,0.738,0.033,1.096,0.114c0.18,0.045,0.355,0.098,0.523,0.167l0.248,0.127l0.225,0.16
					c0.068,0.062,0.131,0.133,0.195,0.199c0.055,0.072,0.098,0.156,0.148,0.234c0.043,0.08,0.057,0.174,0.088,0.262
					c0.033,0.086,0.025,0.18,0.033,0.269c0.006,0.09,0.018,0.186-0.008,0.276l-0.043,0.27c-0.014,0.091-0.055,0.173-0.08,0.259
					l-0.09,0.262l0.088-0.262c0.021-0.088,0.061-0.172,0.074-0.261l0.037-0.272c0.021-0.086,0.01-0.182,0.004-0.271
					c-0.01-0.09-0.004-0.183-0.039-0.264c-0.031-0.086-0.045-0.18-0.094-0.254c-0.051-0.078-0.09-0.158-0.148-0.229
					c-0.063-0.06-0.125-0.125-0.189-0.188l-0.223-0.15l-0.244-0.119c-0.168-0.064-0.344-0.119-0.518-0.159
					c-0.355-0.072-0.721-0.103-1.078-0.091L115.1,0.43l0.037-0.061l0.293-0.519l0.266-0.53c0.076-0.185,0.156-0.362,0.219-0.55
					c0.059-0.187,0.133-0.371,0.168-0.564c0.02-0.098,0.045-0.191,0.063-0.289l0.033-0.291c0.018-0.098,0.01-0.196,0.016-0.293
					c0.004-0.098,0-0.195-0.012-0.293c-0.012-0.191-0.055-0.382-0.104-0.569c-0.031-0.091-0.061-0.181-0.092-0.275l-0.127-0.261
					l-0.152-0.246l-0.178-0.231l-0.195-0.212l-0.217-0.196c-0.152-0.123-0.311-0.236-0.475-0.342
					c-0.166-0.102-0.34-0.196-0.514-0.281c-0.355-0.17-0.727-0.301-1.102-0.411c-0.377-0.105-0.768-0.189-1.148-0.237l-0.117-0.011
					l0.016-0.119c0.033-0.258,0.07-0.518,0.092-0.78c0.023-0.262,0.037-0.521,0.033-0.779c0-0.258-0.014-0.518-0.059-0.768
					c-0.023-0.125-0.055-0.246-0.094-0.361c-0.041-0.119-0.094-0.225-0.158-0.323c-0.07-0.094-0.146-0.179-0.246-0.232
					c-0.09-0.061-0.199-0.09-0.313-0.104c-0.115-0.008-0.234-0.004-0.352,0.024c-0.123,0.021-0.238,0.062-0.355,0.103
					c-0.232,0.094-0.459,0.219-0.674,0.359c-0.215,0.135-0.428,0.293-0.613,0.457l-0.283,0.242l0.021-0.373
					c0.014-0.229,0.02-0.458,0.012-0.689c-0.018-0.225-0.043-0.454-0.102-0.67c-0.023-0.105-0.063-0.207-0.104-0.309
					c-0.047-0.1-0.09-0.197-0.156-0.283c-0.057-0.092-0.125-0.171-0.203-0.24c-0.078-0.074-0.162-0.135-0.252-0.183
					c-0.369-0.209-0.828-0.245-1.271-0.194c-0.225,0.025-0.447,0.071-0.668,0.133c-0.219,0.061-0.441,0.137-0.641,0.225
					l-0.965,0.424l0.754-0.746l0.352-0.346l0.322-0.367c0.094-0.13,0.201-0.254,0.281-0.391c0.086-0.133,0.172-0.271,0.232-0.412
					c0.037-0.07,0.068-0.142,0.09-0.219c0.021-0.074,0.057-0.143,0.07-0.219c0.01-0.074,0.031-0.148,0.043-0.222l0.014-0.223
					l-0.02-0.222l-0.049-0.215l-0.08-0.209l-0.104-0.197l-0.133-0.19l-0.15-0.175c-0.109-0.112-0.225-0.215-0.346-0.318
					c-0.252-0.196-0.527-0.368-0.816-0.516c-0.285-0.148-0.59-0.279-0.895-0.392c-0.305-0.115-0.627-0.212-0.934-0.291l-0.221-0.053
					l0.033-0.23c0.051-0.355,0.117-0.709,0.15-1.067c0.02-0.176,0.037-0.354,0.045-0.533c0.012-0.178,0.029-0.356,0.023-0.533
					c0.006-0.176,0.006-0.354-0.012-0.526c-0.004-0.176-0.027-0.346-0.053-0.517c-0.025-0.166-0.064-0.334-0.113-0.49
					c-0.049-0.158-0.119-0.307-0.195-0.44c-0.086-0.127-0.18-0.246-0.299-0.329c-0.113-0.096-0.254-0.144-0.391-0.18
					c-0.148-0.036-0.303-0.045-0.463-0.03c-0.158,0.007-0.32,0.043-0.486,0.086c-0.324,0.086-0.645,0.225-0.953,0.387
					c-0.154,0.083-0.305,0.172-0.453,0.264c-0.148,0.092-0.299,0.196-0.428,0.291l-0.207,0.156l-0.178-0.189
					c-0.301-0.326-0.611-0.643-0.934-0.943c-0.324-0.297-0.652-0.587-1.008-0.841c-0.699-0.521-1.477-0.93-2.295-1.101
					c-0.822-0.169-1.666-0.015-2.385,0.41c-0.725,0.421-1.322,1.065-1.828,1.771c-0.506,0.708-0.92,1.489-1.285,2.292
					c-0.365,0.804-0.672,1.638-0.945,2.484c-0.273,0.846-0.51,1.705-0.719,2.571c-0.203,0.865-0.385,1.746-0.52,2.615l-0.729-0.15
					c0.098-0.404,0.205-0.805,0.281-1.211c0.043-0.202,0.086-0.403,0.111-0.608c0.031-0.201,0.07-0.401,0.086-0.605
					c0.02-0.201,0.049-0.405,0.049-0.604c0.014-0.2,0.018-0.402,0.008-0.598c0-0.199-0.033-0.391-0.055-0.582
					c-0.039-0.183-0.072-0.371-0.139-0.538c-0.061-0.169-0.143-0.324-0.24-0.456c-0.094-0.135-0.217-0.242-0.35-0.33
					c-0.141-0.076-0.287-0.148-0.459-0.176c-0.164-0.038-0.342-0.045-0.527-0.038c-0.186,0.008-0.371,0.028-0.559,0.07
					c-0.191,0.037-0.379,0.093-0.564,0.156c-0.188,0.056-0.371,0.131-0.555,0.208c-0.182,0.079-0.369,0.171-0.527,0.257
					l-2.213,1.236l1.711-1.883c0.307-0.339,0.629-0.671,0.918-1.025c0.152-0.172,0.297-0.35,0.434-0.529
					c0.137-0.178,0.277-0.36,0.396-0.545l0.189-0.28l0.164-0.283c0.121-0.189,0.193-0.387,0.289-0.58l0.098-0.289
					c0.031-0.098,0.041-0.191,0.063-0.287c0.02-0.093,0.01-0.178,0.016-0.268c-0.016-0.08-0.02-0.164-0.045-0.237
					c-0.047-0.146-0.139-0.267-0.262-0.381c-0.135-0.104-0.293-0.199-0.482-0.266c-0.092-0.037-0.189-0.068-0.291-0.093
					c-0.1-0.028-0.205-0.046-0.311-0.066c-0.209-0.037-0.43-0.06-0.65-0.076c-0.438-0.026-0.893-0.016-1.344,0.016
					c-0.227,0.019-0.449,0.039-0.678,0.067c-0.221,0.027-0.453,0.064-0.666,0.099l-0.938,0.17l0.492-0.824
					c0.238-0.391,0.48-0.773,0.701-1.168c0.109-0.199,0.225-0.392,0.328-0.593c0.102-0.204,0.211-0.401,0.311-0.604l0.285-0.61
					l0.26-0.617c0.074-0.209,0.16-0.416,0.227-0.629c0.063-0.207,0.133-0.418,0.178-0.63c0.057-0.209,0.09-0.423,0.127-0.634
					c0.023-0.21,0.047-0.421,0.045-0.628c0.002-0.103-0.004-0.205-0.012-0.305c-0.004-0.103-0.025-0.198-0.041-0.298
					c-0.033-0.192-0.102-0.371-0.178-0.541c-0.166-0.334-0.422-0.603-0.758-0.789c-0.166-0.09-0.35-0.16-0.539-0.211
					c-0.186-0.049-0.406-0.084-0.566-0.087l-0.092-0.002l-0.09-0.033l-0.65-0.27c-0.221-0.09-0.439-0.156-0.662-0.235
					c-0.219-0.075-0.443-0.124-0.664-0.19c-0.219-0.043-0.443-0.092-0.66-0.118l-0.332-0.028c-0.109-0.01-0.211,0.002-0.32,0
					c-0.107-0.002-0.209,0.018-0.307,0.033l-0.15,0.026c-0.047,0.009-0.094,0.027-0.139,0.041c-0.094,0.027-0.184,0.06-0.262,0.108
					l-0.127,0.062l-0.105,0.086c-0.15,0.106-0.264,0.257-0.361,0.42c-0.055,0.078-0.09,0.176-0.135,0.262l-0.098,0.291
					c-0.021,0.105-0.045,0.207-0.066,0.313c-0.01,0.105-0.029,0.216-0.039,0.323c-0.018,0.221-0.018,0.441-0.014,0.67
					c0.008,0.224,0.029,0.455,0.053,0.682c0.057,0.461,0.146,0.918,0.256,1.375c0.057,0.225,0.115,0.454,0.186,0.678
					c0.064,0.221,0.139,0.453,0.215,0.659l1.004,2.763l-1.811-2.326l-0.557-0.715c-0.186-0.238-0.387-0.455-0.584-0.684
					c-0.195-0.224-0.416-0.423-0.619-0.636c-0.105-0.1-0.219-0.192-0.33-0.285c-0.113-0.094-0.219-0.196-0.34-0.27l-0.35-0.242
					l-0.361-0.189c-0.244-0.112-0.492-0.186-0.73-0.211c-0.121-0.021-0.234,0.008-0.354,0.002c-0.111,0.033-0.227,0.043-0.334,0.092
					c-0.107,0.059-0.215,0.094-0.314,0.18l-0.15,0.106L69.5-28.221c-0.189,0.178-0.352,0.403-0.504,0.637
					c-0.148,0.241-0.279,0.496-0.398,0.76c-0.119,0.268-0.223,0.543-0.32,0.824c-0.094,0.279-0.178,0.564-0.254,0.857
					c-0.154,0.577-0.275,1.168-0.377,1.766c-0.051,0.297-0.092,0.595-0.129,0.898c-0.037,0.295-0.072,0.604-0.094,0.893
					l-0.965-0.033c-0.002-0.607-0.023-1.211-0.08-1.802l-0.057-0.44l-0.072-0.427c-0.039-0.135-0.063-0.278-0.107-0.409l-0.063-0.19
					l-0.076-0.182c-0.051-0.11-0.111-0.219-0.174-0.295c-0.063-0.084-0.125-0.129-0.182-0.156c-0.053-0.031-0.109-0.035-0.186-0.029
					c-0.08,0.008-0.178,0.047-0.277,0.09c-0.207,0.104-0.424,0.271-0.623,0.467c-0.098,0.092-0.195,0.195-0.289,0.303
					c-0.094,0.103-0.189,0.222-0.262,0.32l-0.209,0.286l-0.344-0.102c-0.285-0.086-0.576-0.172-0.867-0.234
					c-0.146-0.037-0.289-0.047-0.432-0.076c-0.143-0.02-0.281-0.03-0.42-0.041c-0.135,0.004-0.273-0.008-0.396,0.016
					c-0.131,0.01-0.244,0.042-0.348,0.077c-0.102,0.039-0.189,0.085-0.256,0.148c-0.035,0.029-0.074,0.059-0.098,0.098
					c-0.031,0.037-0.053,0.078-0.076,0.123c-0.047,0.084-0.074,0.195-0.1,0.311c-0.021,0.117-0.025,0.248-0.023,0.379
					c0.002,0.135,0.016,0.271,0.035,0.412c0.025,0.139,0.051,0.279,0.084,0.42c0.07,0.283,0.162,0.566,0.268,0.848
					c0.053,0.138,0.111,0.281,0.166,0.418c0.063,0.135,0.127,0.278,0.188,0.398l0.557,1.09l-1.176-0.416
					c-0.281-0.102-0.563-0.228-0.848-0.312c-0.285-0.077-0.574-0.164-0.861-0.198c-0.143-0.023-0.287-0.049-0.424-0.045
					c-0.141,0.002-0.285-0.026-0.42,0c-0.133,0.021-0.275,0.023-0.4,0.055c-0.125,0.043-0.258,0.068-0.375,0.117
					c-0.115,0.066-0.238,0.11-0.344,0.184c-0.098,0.084-0.215,0.143-0.307,0.244c-0.188,0.184-0.354,0.4-0.492,0.644
					c-0.139,0.242-0.25,0.51-0.344,0.788c-0.092,0.278-0.158,0.57-0.217,0.865c-0.213,1.189-0.211,2.443-0.117,3.686
					c0.049,0.623,0.123,1.246,0.217,1.864c0.045,0.312,0.098,0.618,0.152,0.929c0.059,0.307,0.121,0.621,0.186,0.912l-0.893,0.252
					l-0.146-0.426l-0.174-0.406c-0.129-0.259-0.264-0.519-0.436-0.74c-0.076-0.114-0.17-0.215-0.262-0.316
					c-0.098-0.092-0.191-0.19-0.301-0.259c-0.102-0.081-0.217-0.143-0.332-0.198c-0.111-0.057-0.234-0.1-0.359-0.131l-0.189-0.036
					l-0.191-0.021c-0.131-0.008-0.266-0.004-0.402,0.01c-0.268,0.029-0.539,0.098-0.809,0.197c-0.27,0.098-0.531,0.229-0.789,0.375
					c-0.127,0.072-0.248,0.15-0.371,0.233c-0.117,0.082-0.248,0.175-0.344,0.254l-3.34,2.754l2.689-3.382
					c0.238-0.299,0.455-0.614,0.594-0.927c0.025-0.078,0.064-0.156,0.078-0.229c0.025-0.078,0.033-0.144,0.041-0.217
					c0-0.027,0-0.062,0-0.094c-0.004-0.029-0.008-0.059-0.01-0.086c-0.01-0.023-0.018-0.053-0.023-0.077l-0.037-0.074
					c-0.053-0.091-0.148-0.181-0.277-0.259c-0.131-0.08-0.289-0.14-0.457-0.19c-0.17-0.049-0.352-0.084-0.535-0.11
					c-0.092-0.009-0.188-0.021-0.277-0.027c-0.09-0.004-0.193-0.01-0.268-0.01h-0.838l0.461-0.701l0.299-0.459
					c0.107-0.151,0.188-0.309,0.281-0.465c0.098-0.152,0.18-0.309,0.262-0.471c0.088-0.156,0.162-0.318,0.232-0.478
					c0.076-0.16,0.129-0.323,0.193-0.486c0.055-0.162,0.094-0.326,0.133-0.488c0.027-0.162,0.057-0.321,0.057-0.479
					c0.006-0.154-0.008-0.303-0.043-0.441c-0.029-0.138-0.092-0.26-0.16-0.375c-0.037-0.056-0.082-0.105-0.125-0.158
					c-0.055-0.045-0.1-0.1-0.16-0.143c-0.115-0.087-0.244-0.168-0.391-0.225c-0.143-0.064-0.299-0.115-0.463-0.156
					c-0.322-0.081-0.67-0.117-1.02-0.127c-0.176-0.01-0.352-0.007-0.525,0c-0.178,0.006-0.363,0.022-0.518,0.043l-0.42,0.054
					l-0.076-0.417l-0.088-0.51c-0.029-0.17-0.076-0.334-0.111-0.5c-0.076-0.331-0.172-0.654-0.287-0.961
					c-0.053-0.158-0.129-0.293-0.191-0.445c-0.078-0.13-0.15-0.274-0.238-0.38c-0.043-0.063-0.09-0.113-0.141-0.155l-0.068-0.072
					l-0.074-0.051c-0.098-0.077-0.199-0.105-0.305-0.129c-0.107-0.01-0.221-0.01-0.348,0.031c-0.061,0.016-0.123,0.041-0.188,0.068
					c-0.064,0.028-0.131,0.066-0.195,0.102C42.84-23.446,42.59-23.234,42.359-23c-0.232,0.236-0.451,0.493-0.658,0.761
					c-0.098,0.135-0.201,0.272-0.299,0.413c-0.094,0.138-0.191,0.287-0.273,0.42l-1.346,2.241l0.574-2.57
					c0.043-0.207,0.098-0.408,0.139-0.613c0.023-0.205,0.07-0.413,0.072-0.616l0.014-0.312c0.008-0.102-0.008-0.203-0.01-0.304
					c-0.004-0.205-0.047-0.405-0.076-0.604l-0.074-0.295c-0.023-0.097-0.068-0.189-0.096-0.285c-0.031-0.098-0.08-0.188-0.119-0.275
					c-0.039-0.096-0.09-0.182-0.139-0.268c-0.047-0.09-0.105-0.17-0.16-0.256c-0.051-0.084-0.117-0.158-0.18-0.236
					c-0.064-0.076-0.129-0.154-0.199-0.223c-0.061-0.066-0.146-0.138-0.199-0.177l0.088,0.049l-0.752-0.285
					c-0.252-0.094-0.508-0.164-0.76-0.25c-0.254-0.086-0.514-0.135-0.771-0.203c-0.256-0.067-0.514-0.094-0.773-0.147
					c-0.256-0.021-0.518-0.062-0.771-0.058l-0.381,0.002l-0.375,0.044c-0.127,0.005-0.242,0.048-0.359,0.073
					c-0.125,0.019-0.238,0.065-0.348,0.109l-0.172,0.066l-0.152,0.088l-0.156,0.084l-0.143,0.105
					c-0.098,0.065-0.184,0.147-0.268,0.237c-0.088,0.076-0.158,0.174-0.23,0.269c-0.146,0.19-0.26,0.408-0.359,0.633
					c-0.098,0.228-0.17,0.469-0.232,0.718l-0.074,0.38l-0.045,0.383c-0.049,0.52-0.037,1.051,0.004,1.578
					c0.023,0.265,0.059,0.529,0.098,0.794c0.043,0.257,0.094,0.526,0.152,0.769l0.107,0.435l-0.463,0.021
					c-0.262,0.012-0.529,0.006-0.787,0.034c-0.26,0.033-0.523,0.054-0.762,0.125c-0.127,0.027-0.25,0.057-0.359,0.108
					c-0.111,0.049-0.242,0.076-0.34,0.142c-0.211,0.112-0.402,0.254-0.551,0.42c-0.068,0.094-0.152,0.172-0.193,0.277l-0.084,0.152
					c-0.025,0.05-0.037,0.11-0.057,0.165l-0.053,0.168l-0.029,0.176c-0.023,0.117-0.027,0.243-0.027,0.367
					c-0.008,0.123,0.004,0.25,0.016,0.377c0.004,0.127,0.027,0.252,0.053,0.38c0.018,0.13,0.045,0.255,0.082,0.385
					c0.033,0.124,0.061,0.252,0.105,0.378c0.078,0.252,0.172,0.502,0.27,0.75c0.104,0.248,0.207,0.494,0.332,0.739
					c0.232,0.486,0.49,0.96,0.771,1.429c0.281,0.467,0.578,0.922,0.887,1.372c0.311,0.448,0.637,0.89,0.973,1.31l-0.512,0.35
					l-0.541-0.898c-0.088-0.156-0.199-0.291-0.299-0.434l-0.305-0.423c-0.1-0.148-0.221-0.27-0.332-0.403
					c-0.111-0.129-0.223-0.263-0.34-0.391l-0.375-0.358l-0.184-0.175l-0.201-0.156c-0.141-0.1-0.268-0.217-0.414-0.301l-0.436-0.262
					l-0.459-0.199c-0.154-0.058-0.316-0.098-0.475-0.146c-0.162-0.029-0.326-0.064-0.49-0.078c-0.164-0.004-0.328-0.019-0.488-0.001
					c-0.166,0.007-0.328,0.038-0.484,0.072c-0.154,0.037-0.322,0.093-0.436,0.15l-0.041,0.02l-0.031,0.01l-1.174,0.313
					c-0.381,0.139-0.771,0.25-1.141,0.41c-0.365,0.167-0.742,0.313-1.082,0.527c-0.357,0.182-0.674,0.421-1,0.651
					c-0.291,0.262-0.6,0.517-0.84,0.828l-0.191,0.225l-0.158,0.243c-0.109,0.167-0.221,0.331-0.297,0.512
					c-0.08,0.18-0.176,0.35-0.229,0.541c-0.057,0.188-0.135,0.367-0.164,0.563c-0.09,0.384-0.131,0.781-0.139,1.18
					c-0.008,0.397,0.023,0.797,0.078,1.194l0.109,0.594l0.145,0.588l0.182,0.579c0.064,0.192,0.137,0.383,0.209,0.571
					c0.15,0.377,0.309,0.75,0.488,1.117c0.355,0.734,0.764,1.444,1.205,2.128c0.443,0.688,0.922,1.355,1.439,1.98l-0.246,0.207
					L22.514-0.03c-0.09-0.103-0.18-0.21-0.277-0.306c-0.209-0.18-0.396-0.385-0.617-0.544l-0.33-0.246
					c-0.109-0.088-0.232-0.149-0.348-0.223c-0.117-0.072-0.232-0.145-0.359-0.203l-0.371-0.176l-0.385-0.14
					c-0.129-0.051-0.264-0.072-0.395-0.112c-0.131-0.036-0.268-0.058-0.404-0.077c-0.135-0.03-0.27-0.043-0.406-0.049
					c-0.135-0.018-0.273-0.016-0.41-0.016c-0.137-0.004-0.273,0.016-0.408,0.021c-0.27,0.031-0.549,0.08-0.795,0.161l0.01-0.005
					c-0.262,0.143-0.531,0.27-0.785,0.424c-0.244,0.162-0.504,0.311-0.729,0.5c-0.115,0.093-0.236,0.174-0.342,0.28l-0.318,0.306
					c-0.107,0.102-0.191,0.225-0.289,0.334l-0.141,0.173l-0.119,0.183c-0.17,0.242-0.299,0.508-0.416,0.776l-0.146,0.414
					l-0.104,0.434c-0.043,0.289-0.078,0.584-0.074,0.879c-0.012,0.151,0.006,0.298,0.014,0.443c0.006,0.148,0.025,0.297,0.051,0.444
					c0.02,0.146,0.041,0.294,0.076,0.437c0.033,0.145,0.063,0.293,0.107,0.434c0.076,0.289,0.174,0.572,0.277,0.85
					c0.111,0.28,0.229,0.553,0.359,0.822c0.133,0.268,0.268,0.533,0.42,0.793c0.293,0.522,0.619,1.024,0.975,1.506
					C16.184,8.97,16.561,9.438,16.967,9.881z"/>
			</g>
			<g>
				<path fill="#FFFFFF" d="M108.264-11.271c0.066-0.528,0.217-1.049,0.451-1.531c0.119-0.244,0.262-0.475,0.432-0.688
					c0.09-0.104,0.184-0.204,0.285-0.299c0.1-0.091,0.209-0.175,0.324-0.252c0.119-0.074,0.238-0.146,0.367-0.201
					c0.127-0.053,0.256-0.106,0.393-0.138c0.133-0.038,0.273-0.053,0.41-0.078c0.139-0.005,0.279-0.02,0.418-0.01
					c0.137,0,0.277,0.01,0.41,0.031c0.139,0.014,0.273,0.049,0.408,0.073c0.135,0.029,0.266,0.07,0.4,0.108l0.383,0.133
					l-0.236,0.273c-0.33-0.533-0.631-1.076-0.91-1.635c-0.277-0.561-0.525-1.138-0.74-1.73c-0.211-0.596-0.385-1.205-0.475-1.852
					c-0.088-0.635-0.096-1.338,0.211-2.002c0.156-0.332,0.406-0.629,0.707-0.844c0.301-0.211,0.645-0.338,0.979-0.413
					c0.678-0.151,1.338-0.118,1.979-0.038c0.639,0.084,1.26,0.229,1.867,0.402c0.605,0.171,1.201,0.375,1.789,0.591l-0.42,0.06
					c0.201-0.154,0.391-0.281,0.594-0.41c0.201-0.129,0.4-0.254,0.607-0.371c0.42-0.234,0.85-0.445,1.311-0.615
					c0.463-0.17,0.953-0.297,1.494-0.307c0.27-0.002,0.555,0.033,0.832,0.125c0.283,0.094,0.547,0.258,0.764,0.465
					c0.215,0.207,0.373,0.455,0.488,0.703c0.117,0.252,0.191,0.504,0.244,0.759c0.107,0.501,0.123,0.991,0.115,1.475
					c-0.023,0.967-0.18,1.895-0.373,2.808l-0.293-0.556c0.18,0.076,0.334,0.152,0.494,0.236c0.162,0.082,0.318,0.164,0.473,0.254
					c0.313,0.18,0.615,0.375,0.906,0.596c0.295,0.219,0.576,0.465,0.83,0.758c0.252,0.291,0.482,0.637,0.607,1.063
					c0.129,0.42,0.102,0.916-0.076,1.317c-0.17,0.403-0.436,0.722-0.717,0.983c-0.566,0.523-1.205,0.862-1.844,1.169l-0.096-0.857
					c0.17,0.043,0.295,0.088,0.436,0.143c0.137,0.054,0.271,0.113,0.402,0.183c0.262,0.141,0.514,0.304,0.738,0.518
					c0.111,0.107,0.219,0.22,0.311,0.347c0.098,0.125,0.184,0.264,0.252,0.41c0.072,0.143,0.127,0.297,0.162,0.454
					c0.039,0.154,0.064,0.312,0.066,0.47c0.012,0.158-0.002,0.311-0.018,0.462c-0.023,0.152-0.045,0.3-0.086,0.442
					c-0.035,0.146-0.092,0.277-0.133,0.416c-0.057,0.133-0.109,0.266-0.172,0.396c-0.252,0.504-0.564,0.959-0.9,1.387l-0.232-0.629
					c0.277,0.064,0.531,0.139,0.787,0.22c0.262,0.084,0.514,0.176,0.764,0.277c0.502,0.205,0.998,0.446,1.457,0.772
					c0.232,0.164,0.449,0.352,0.646,0.57c0.193,0.224,0.365,0.49,0.455,0.795c0.096,0.306,0.096,0.643,0.025,0.941
					c-0.072,0.305-0.209,0.569-0.365,0.807c-0.322,0.476-0.729,0.85-1.15,1.184c-0.42,0.334-0.863,0.627-1.326,0.895
					c-0.914,0.537-1.863,0.986-2.824,1.406l-0.111-0.264c0.191-0.068,0.373-0.116,0.568-0.152c0.193-0.035,0.393-0.063,0.588-0.063
					c0.203,0.004,0.41,0.028,0.605,0.119c0.094,0.045,0.182,0.108,0.254,0.189c0.07,0.081,0.123,0.178,0.154,0.278
					c0.035,0.1,0.049,0.202,0.049,0.303c0.008,0.098-0.008,0.197-0.021,0.294c-0.031,0.191-0.08,0.379-0.148,0.558
					c-0.133,0.364-0.303,0.703-0.486,1.039c0.156-0.348,0.305-0.701,0.404-1.063c0.055-0.179,0.088-0.365,0.109-0.549
					c0.002-0.092,0.01-0.188-0.004-0.276c-0.004-0.086-0.023-0.176-0.053-0.255c-0.029-0.081-0.076-0.149-0.135-0.21
					c-0.057-0.058-0.129-0.104-0.205-0.135c-0.156-0.062-0.334-0.076-0.516-0.068c-0.359,0.024-0.727,0.122-1.063,0.256L123.23,0.89
					c0.932-0.47,1.844-0.966,2.705-1.533c0.426-0.291,0.842-0.589,1.232-0.92c0.381-0.326,0.738-0.688,0.988-1.092
					c0.252-0.402,0.357-0.845,0.215-1.228c-0.135-0.388-0.48-0.724-0.881-0.989c-0.4-0.267-0.855-0.476-1.326-0.654
					c-0.236-0.089-0.475-0.166-0.719-0.236c-0.24-0.073-0.492-0.138-0.727-0.186l-0.596-0.124l0.367-0.506
					c0.146-0.202,0.291-0.408,0.42-0.615c0.072-0.108,0.123-0.217,0.188-0.321c0.063-0.107,0.107-0.219,0.164-0.324
					c0.051-0.111,0.094-0.22,0.135-0.33c0.033-0.112,0.082-0.22,0.102-0.332c0.029-0.112,0.045-0.22,0.061-0.329
					c0.006-0.106,0.018-0.217,0.006-0.323c-0.004-0.102-0.021-0.203-0.051-0.301c-0.021-0.098-0.057-0.191-0.104-0.283
					c-0.043-0.088-0.098-0.175-0.164-0.256c-0.063-0.08-0.135-0.16-0.217-0.231c-0.156-0.144-0.346-0.265-0.551-0.369
					c-0.1-0.053-0.207-0.102-0.313-0.139c-0.104-0.039-0.229-0.078-0.311-0.097l-1.252-0.286l1.154-0.574
					c0.586-0.291,1.152-0.623,1.59-1.033c0.217-0.205,0.393-0.434,0.486-0.66c0.094-0.228,0.102-0.451,0.035-0.684
					c-0.07-0.236-0.223-0.473-0.416-0.695c-0.193-0.224-0.432-0.428-0.686-0.617c-0.252-0.188-0.521-0.364-0.809-0.524
					c-0.137-0.078-0.281-0.154-0.426-0.228c-0.145-0.073-0.297-0.147-0.434-0.204l-0.371-0.156l0.084-0.398
					c0.09-0.441,0.168-0.881,0.232-1.318c0.064-0.439,0.111-0.876,0.123-1.31c0.01-0.433-0.006-0.86-0.088-1.255
					c-0.076-0.396-0.229-0.748-0.455-0.972c-0.223-0.221-0.541-0.326-0.918-0.324s-0.785,0.101-1.186,0.237
					c-0.4,0.137-0.797,0.323-1.182,0.528c-0.195,0.105-0.385,0.215-0.572,0.332c-0.188,0.115-0.377,0.238-0.545,0.36l-0.201,0.144
					l-0.223-0.086c-0.564-0.221-1.137-0.424-1.711-0.6c-0.291-0.088-0.58-0.168-0.869-0.236c-0.291-0.074-0.584-0.137-0.875-0.18
					c-0.576-0.095-1.17-0.129-1.705-0.024c-0.27,0.049-0.518,0.137-0.725,0.276c-0.207,0.141-0.373,0.323-0.49,0.547
					c-0.229,0.457-0.266,1.047-0.207,1.623c0.051,0.584,0.193,1.172,0.375,1.746c0.182,0.576,0.402,1.146,0.645,1.703
					c0.244,0.557,0.512,1.118,0.805,1.647l0.258,0.479l-0.496-0.203l-0.359-0.149c-0.121-0.036-0.242-0.08-0.365-0.119
					c-0.125-0.026-0.244-0.068-0.373-0.084c-0.125-0.026-0.25-0.042-0.375-0.049c-0.129-0.016-0.256-0.009-0.381-0.009
					c-0.125,0.012-0.25,0.021-0.375,0.049c-0.125,0.02-0.244,0.061-0.361,0.107c-0.119,0.042-0.234,0.099-0.344,0.164
					c-0.109,0.065-0.213,0.139-0.313,0.215c-0.098,0.086-0.195,0.172-0.279,0.268c-0.174,0.188-0.332,0.402-0.461,0.632
					C108.557-12.295,108.369-11.793,108.264-11.271z"/>
			</g>
			<g>
				<path fill="#FFFFFF" d="M33.156,9.809c0,0-0.008-0.183,0.01-0.53c0.012-0.347,0.039-0.853,0.129-1.498
					c0.176-1.276,0.545-3.125,1.482-5.17c0.469-1.02,1.08-2.088,1.891-3.106c0.801-1.019,1.791-1.992,2.963-2.805
					s2.506-1.479,3.93-1.924c1.424-0.451,2.92-0.713,4.422-0.83l1.127-0.049l0.141-0.005h0.018h0.049h0.035l0.076,0.01l0.291,0.027
					c0.193,0.021,0.381,0.045,0.57,0.076c0.75,0.115,1.484,0.287,2.197,0.502c1.432,0.426,2.77,1.066,3.967,1.828
					c1.203,0.761,2.23,1.703,3.076,2.685c0.85,0.989,1.492,2.041,1.975,3.057c0.49,1.016,0.826,1.99,1.043,2.873
					c0.059,0.219,0.115,0.43,0.164,0.639c0.043,0.205,0.078,0.406,0.115,0.597c0.035,0.193,0.066,0.379,0.102,0.553
					c0.018,0.18,0.043,0.345,0.061,0.509c0.096,0.64,0.115,1.153,0.135,1.494c0.018,0.346,0.029,0.529,0.029,0.529
					s-0.029-0.183-0.084-0.52c-0.051-0.344-0.127-0.843-0.271-1.47c-0.035-0.156-0.068-0.322-0.107-0.495
					c-0.043-0.17-0.094-0.351-0.145-0.538c-0.051-0.188-0.104-0.376-0.156-0.577c-0.063-0.2-0.135-0.404-0.201-0.614
					c-0.273-0.846-0.67-1.77-1.186-2.719c-0.523-0.951-1.193-1.924-2.025-2.829c-0.838-0.9-1.842-1.74-2.986-2.435
					c-1.143-0.701-2.426-1.254-3.777-1.652c-0.674-0.202-1.369-0.356-2.07-0.457c-0.172-0.029-0.348-0.051-0.523-0.068l-0.258-0.021
					l-0.063-0.004h-0.031c-0.012-0.005,0.049,0,0.016,0h-0.016l-0.139,0.006l-1.076,0.054c-1.436,0.1-2.859,0.335-4.209,0.754
					c-1.34,0.416-2.607,0.99-3.723,1.73c-1.113,0.742-2.084,1.615-2.889,2.554c-0.795,0.939-1.441,1.931-1.947,2.889
					c-1.012,1.93-1.518,3.707-1.797,4.958C33.211,9.071,33.156,9.809,33.156,9.809z"/>
			</g>
			<g>
				<path fill="#FFFFFF" d="M37.91,2.094c0,0,0.127,0.039,0.344,0.121c0.211,0.08,0.51,0.205,0.857,0.369
					c0.701,0.332,1.576,0.846,2.41,1.422c0.836,0.576,1.621,1.223,2.174,1.763c0.277,0.268,0.498,0.503,0.648,0.678
					c0.15,0.171,0.229,0.281,0.229,0.281s-0.127-0.041-0.344-0.121c-0.213-0.08-0.514-0.204-0.859-0.368
					c-0.697-0.331-1.578-0.843-2.41-1.423c-0.834-0.577-1.619-1.226-2.174-1.763c-0.277-0.27-0.496-0.506-0.646-0.678
					C37.988,2.204,37.91,2.094,37.91,2.094z"/>
			</g>
			<g>
				<path fill="#FFFFFF" d="M46.713-3.239c0,0,0.045,0.132,0.1,0.367c0.055,0.235,0.125,0.573,0.182,0.971
					c0.135,0.803,0.213,1.873,0.213,2.945c0,1.073-0.078,2.143-0.207,2.946c-0.059,0.4-0.131,0.734-0.188,0.971
					c-0.055,0.234-0.1,0.369-0.1,0.369s-0.043-0.135-0.096-0.369C46.559,4.725,46.49,4.39,46.43,3.99
					c-0.133-0.803-0.211-1.873-0.211-2.946c0-1.072,0.084-2.141,0.213-2.945c0.059-0.398,0.131-0.736,0.186-0.971
					C46.674-3.106,46.713-3.239,46.713-3.239z"/>
			</g>
			<g>
				<path fill="#FFFFFF" d="M55.236,5.059c0,0,0.01-0.053,0.035-0.139c0.023-0.08,0.063-0.188,0.121-0.301
					c0.117-0.229,0.32-0.459,0.572-0.624c0.248-0.16,0.543-0.254,0.799-0.271c0.129-0.006,0.244,0,0.328,0.014
					c0.084,0.009,0.139,0.024,0.139,0.024s-0.006,0.056-0.031,0.139c-0.023,0.081-0.064,0.191-0.123,0.304
					c-0.117,0.226-0.322,0.457-0.574,0.619c-0.248,0.161-0.543,0.254-0.801,0.269c-0.127,0.008-0.242,0-0.326-0.01
					C55.291,5.076,55.236,5.059,55.236,5.059z"/>
			</g>
			<g>
				<path fill="#FFFFFF" d="M55.043-0.86c0,0-0.035,0.141-0.111,0.377c-0.074,0.236-0.189,0.568-0.352,0.953
					c-0.309,0.78-0.807,1.766-1.373,2.717c-0.564,0.947-1.197,1.857-1.734,2.5c-0.262,0.326-0.5,0.584-0.674,0.764
					c-0.17,0.18-0.277,0.278-0.277,0.278s0.035-0.143,0.107-0.379c0.08-0.236,0.193-0.568,0.357-0.953
					c0.309-0.781,0.809-1.766,1.373-2.715c0.564-0.945,1.197-1.855,1.734-2.5c0.262-0.324,0.502-0.584,0.674-0.766
					C54.936-0.761,55.043-0.86,55.043-0.86z"/>
			</g>
			<g>
				<path fill="#FFFFFF" d="M76.188,8.838c0,0-0.014-0.146-0.018-0.422c-0.008-0.267-0.012-0.672,0.029-1.18
					c0.078-1.014,0.277-2.482,0.926-4.139c0.326-0.824,0.758-1.697,1.354-2.533c0.594-0.842,1.334-1.658,2.229-2.346
					c0.893-0.695,1.922-1.277,3.029-1.688c1.109-0.414,2.283-0.68,3.465-0.834l0.887-0.082l0.109-0.008l0.016-0.004h0.047h0.029
					h0.059l0.238,0.012c0.15,0.008,0.303,0.023,0.453,0.042c0.596,0.062,1.182,0.166,1.758,0.313c1.148,0.278,2.23,0.74,3.205,1.298
					c0.982,0.557,1.828,1.264,2.531,2.016c0.709,0.748,1.252,1.562,1.672,2.345c0.416,0.786,0.713,1.547,0.914,2.233
					c0.051,0.17,0.102,0.338,0.148,0.496c0.037,0.164,0.072,0.319,0.107,0.471c0.035,0.15,0.066,0.293,0.096,0.432
					c0.023,0.138,0.043,0.273,0.064,0.4c0.096,0.502,0.123,0.902,0.152,1.172c0.023,0.271,0.035,0.416,0.035,0.416
					s-0.029-0.141-0.092-0.408c-0.055-0.268-0.145-0.655-0.287-1.139C99.313,5.58,99.277,5.452,99.24,5.32
					c-0.045-0.132-0.094-0.271-0.141-0.413c-0.047-0.145-0.1-0.293-0.15-0.45c-0.059-0.15-0.123-0.307-0.188-0.469
					c-0.254-0.649-0.605-1.352-1.051-2.073c-0.449-0.719-1.016-1.444-1.705-2.115c-0.693-0.668-1.51-1.276-2.428-1.771
					c-0.92-0.5-1.941-0.875-3.01-1.134c-0.533-0.128-1.078-0.221-1.627-0.272c-0.141-0.014-0.275-0.023-0.412-0.031l-0.203-0.008
					h-0.041H88.26c-0.014,0,0.049-0.002,0.018,0h-0.016l-0.104,0.01l-0.842,0.084c-1.115,0.134-2.215,0.375-3.248,0.748
					c-1.029,0.378-2,0.867-2.838,1.486c-0.838,0.617-1.568,1.33-2.158,2.09c-0.594,0.76-1.063,1.553-1.43,2.322
					c-0.727,1.541-1.068,2.949-1.25,3.939C76.211,8.254,76.188,8.838,76.188,8.838z"/>
			</g>
			<g>
				<path fill="#FFFFFF" d="M79.617,2.594c0,0,0.111,0.018,0.287,0.063c0.178,0.044,0.422,0.119,0.713,0.224
					c0.576,0.209,1.293,0.561,1.971,0.982c0.676,0.422,1.309,0.914,1.75,1.338c0.221,0.211,0.396,0.402,0.514,0.541
					c0.119,0.138,0.182,0.23,0.182,0.23s-0.109-0.019-0.283-0.064c-0.182-0.045-0.426-0.117-0.713-0.224
					c-0.578-0.208-1.295-0.559-1.973-0.984c-0.676-0.422-1.309-0.912-1.748-1.338c-0.221-0.212-0.396-0.4-0.516-0.544
					C79.684,2.684,79.617,2.594,79.617,2.594z"/>
			</g>
			<g>
				<path fill="#FFFFFF" d="M86.326-1.938c0,0,0.049,0.104,0.113,0.283c0.064,0.182,0.146,0.444,0.225,0.754
					c0.158,0.623,0.281,1.459,0.324,2.301c0.041,0.84,0.002,1.686-0.092,2.324c-0.049,0.317-0.102,0.584-0.15,0.771
					c-0.045,0.186-0.086,0.295-0.086,0.295s-0.045-0.106-0.111-0.285c-0.064-0.179-0.146-0.441-0.227-0.753
					C86.166,3.125,86.043,2.289,86,1.449c-0.041-0.84-0.002-1.684,0.096-2.321c0.045-0.32,0.1-0.587,0.148-0.775
					C86.289-1.83,86.326-1.938,86.326-1.938z"/>
			</g>
			<g>
				<path fill="#FFFFFF" d="M93.344,4.248c0,0,0-0.053,0.008-0.127c0.008-0.077,0.027-0.174,0.059-0.276
					c0.07-0.205,0.211-0.41,0.402-0.546c0.186-0.141,0.428-0.209,0.641-0.209c0.109,0,0.209,0.011,0.283,0.028
					c0.076,0.014,0.125,0.033,0.125,0.033s0,0.052-0.01,0.126c-0.008,0.076-0.027,0.174-0.061,0.276
					c-0.068,0.205-0.211,0.408-0.402,0.544c-0.188,0.139-0.426,0.209-0.643,0.209c-0.105,0-0.207-0.013-0.283-0.029
					C93.393,4.266,93.344,4.248,93.344,4.248z"/>
			</g>
			<g>
				<path fill="#FFFFFF" d="M92.963-0.395c0,0-0.018,0.117-0.055,0.311c-0.039,0.194-0.109,0.465-0.203,0.781
					c-0.195,0.635-0.529,1.437-0.934,2.206c-0.41,0.767-0.885,1.495-1.305,2.013c-0.209,0.258-0.398,0.465-0.535,0.605
					c-0.135,0.143-0.227,0.218-0.227,0.218s0.014-0.116,0.053-0.31c0.039-0.193,0.109-0.469,0.201-0.785
					c0.197-0.633,0.531-1.438,0.938-2.203c0.406-0.767,0.889-1.494,1.305-2.012c0.209-0.257,0.395-0.465,0.535-0.607
					C92.873-0.318,92.963-0.395,92.963-0.395z"/>
			</g>
			<g>
				<path fill="#FFFFFF" d="M97.148-2.582c0.078,0.209,0.146,0.422,0.232,0.625c0.09,0.199,0.18,0.404,0.297,0.592
					c0.107,0.192,0.232,0.375,0.379,0.535c0.07,0.08,0.143,0.162,0.229,0.227c0.082,0.07,0.16,0.14,0.258,0.186l0.131,0.08
					c0.049,0.025,0.1,0.035,0.146,0.053l0.139,0.052c0.049,0.006,0.102,0.01,0.146,0.014l0.148,0.015
					c0.049-0.004,0.098-0.015,0.148-0.019c0.094-0.018,0.188-0.024,0.281-0.07c0.088-0.037,0.184-0.059,0.268-0.11l0.258-0.16
					c0.086-0.044,0.162-0.125,0.24-0.188l0.238-0.196l-0.059,0.057c0.061-0.093,0.131-0.213,0.188-0.323
					c0.059-0.113,0.111-0.23,0.162-0.345c0.102-0.231,0.186-0.469,0.24-0.703c0.027-0.114,0.053-0.231,0.066-0.346
					c0.014-0.113,0.018-0.229,0.018-0.336c0-0.112-0.012-0.219-0.031-0.323c-0.021-0.105-0.045-0.207-0.088-0.307
					c-0.031-0.098-0.086-0.19-0.143-0.285c-0.051-0.09-0.123-0.18-0.193-0.266c-0.076-0.082-0.148-0.168-0.244-0.248
					c-0.084-0.078-0.184-0.153-0.279-0.227c-0.1-0.074-0.213-0.135-0.314-0.209c-0.113-0.06-0.221-0.127-0.338-0.189
					c-0.234-0.115-0.477-0.217-0.723-0.321l0.037,0.007c-0.072-0.017-0.164-0.031-0.25-0.043c-0.09-0.008-0.18-0.02-0.266-0.02
					c-0.092-0.005-0.178,0-0.266,0.002c-0.092,0.004-0.176,0.026-0.262,0.039c-0.09,0.014-0.168,0.045-0.256,0.069
					c-0.08,0.032-0.156,0.073-0.234,0.112l-0.207,0.164l-0.168,0.207L96.965-4.53c-0.033,0.084-0.041,0.179-0.064,0.272
					c-0.025,0.09-0.025,0.184-0.025,0.277c0,0.096,0,0.192,0,0.287l0.049,0.284c0.021,0.091,0.025,0.189,0.053,0.279L97.148-2.582z
					 M97.148-2.582l-0.18-0.544C96.932-3.219,96.92-3.313,96.9-3.408l-0.066-0.279c-0.012-0.098-0.016-0.193-0.025-0.289
					c-0.01-0.097-0.018-0.195-0.002-0.295c0.012-0.098,0.012-0.198,0.033-0.293l0.088-0.289l0.156-0.271
					c0.064-0.078,0.139-0.156,0.211-0.232c0.084-0.061,0.168-0.13,0.258-0.182c0.094-0.045,0.184-0.104,0.281-0.139
					c0.098-0.033,0.195-0.08,0.295-0.104c0.1-0.025,0.205-0.053,0.307-0.062c0.1-0.022,0.205-0.031,0.309-0.042
					c0.107-0.006,0.205-0.012,0.322-0.006l0,0l0.039,0.009l0.424,0.089c0.141,0.033,0.279,0.078,0.422,0.119
					c0.277,0.094,0.561,0.195,0.826,0.348c0.133,0.076,0.268,0.148,0.396,0.25c0.129,0.086,0.246,0.201,0.365,0.308
					c0.113,0.121,0.223,0.244,0.318,0.387c0.094,0.136,0.18,0.287,0.24,0.448c0.031,0.076,0.061,0.158,0.084,0.24
					c0.025,0.082,0.047,0.162,0.059,0.25c0.033,0.166,0.045,0.334,0.041,0.5c0,0.166-0.02,0.33-0.049,0.485
					c-0.027,0.159-0.07,0.315-0.119,0.461c-0.098,0.301-0.232,0.573-0.387,0.829c-0.08,0.13-0.168,0.251-0.254,0.372
					c-0.094,0.121-0.178,0.23-0.293,0.352l-0.041,0.05l-0.016,0.008l-0.313,0.18c-0.109,0.055-0.203,0.124-0.32,0.164l-0.348,0.125
					c-0.113,0.041-0.246,0.049-0.365,0.074c-0.117,0.029-0.246,0.021-0.371,0.012c-0.063-0.005-0.123-0.005-0.186-0.012l-0.18-0.051
					c-0.061-0.019-0.119-0.035-0.18-0.055l-0.16-0.084c-0.051-0.034-0.105-0.058-0.154-0.091L98.41-0.234
					c-0.094-0.072-0.174-0.16-0.244-0.25c-0.08-0.082-0.145-0.176-0.211-0.269c-0.063-0.09-0.117-0.192-0.174-0.289
					c-0.057-0.094-0.105-0.196-0.154-0.297c-0.096-0.199-0.182-0.406-0.258-0.613C97.289-2.16,97.221-2.369,97.148-2.582z"/>
			</g>
			<g>
				<path fill="#FFFFFF" d="M28.713,4.273c0.215-0.055,0.43-0.104,0.641-0.168c0.213-0.069,0.424-0.135,0.619-0.232
					c0.203-0.09,0.4-0.192,0.57-0.323c0.092-0.064,0.182-0.125,0.256-0.205c0.076-0.072,0.152-0.146,0.209-0.236l0.094-0.123
					c0.027-0.043,0.043-0.094,0.068-0.137l0.066-0.135c0.01-0.049,0.018-0.098,0.027-0.149l0.027-0.142
					c0.006-0.049-0.002-0.098-0.002-0.146c-0.004-0.098,0-0.192-0.039-0.289c-0.029-0.095-0.039-0.188-0.082-0.277l-0.131-0.274
					c-0.035-0.092-0.109-0.174-0.162-0.261l-0.168-0.252l0.047,0.06c-0.084-0.064-0.197-0.148-0.301-0.216
					c-0.109-0.071-0.217-0.138-0.326-0.2c-0.219-0.125-0.445-0.228-0.67-0.31c-0.113-0.04-0.227-0.077-0.34-0.102
					c-0.113-0.03-0.225-0.042-0.334-0.053c-0.111-0.01-0.221-0.01-0.324,0c-0.107,0.008-0.209,0.022-0.311,0.053
					c-0.105,0.025-0.203,0.066-0.301,0.112c-0.098,0.041-0.189,0.105-0.285,0.165c-0.088,0.072-0.188,0.131-0.268,0.215
					c-0.09,0.078-0.172,0.168-0.258,0.258c-0.082,0.09-0.156,0.197-0.24,0.291c-0.074,0.105-0.15,0.207-0.221,0.316
					c-0.141,0.219-0.273,0.451-0.4,0.688l0.014-0.037c-0.025,0.068-0.051,0.161-0.07,0.245c-0.016,0.084-0.037,0.174-0.045,0.261
					c-0.016,0.09-0.02,0.178-0.021,0.265c-0.012,0.089,0.002,0.175,0.006,0.264c0.004,0.09,0.027,0.174,0.041,0.26
					c0.025,0.082,0.061,0.162,0.092,0.246l0.139,0.221l0.189,0.189l0.236,0.138c0.078,0.042,0.172,0.06,0.26,0.092
					c0.09,0.035,0.186,0.045,0.279,0.053s0.186,0.026,0.279,0.031l0.287-0.018c0.098-0.009,0.191-0.005,0.287-0.027L28.713,4.273z
					 M28.713,4.273l-0.561,0.12c-0.094,0.027-0.193,0.031-0.287,0.042L27.578,4.47c-0.098,0.002-0.195-0.005-0.293-0.005
					c-0.096,0-0.193,0-0.289-0.027c-0.094-0.021-0.197-0.031-0.289-0.062l-0.283-0.119l-0.248-0.181
					C26.104,4,26.033,3.92,25.967,3.84c-0.053-0.09-0.109-0.18-0.154-0.276c-0.035-0.094-0.084-0.191-0.111-0.295
					c-0.021-0.1-0.061-0.201-0.066-0.305c-0.018-0.103-0.033-0.205-0.037-0.308c-0.008-0.106-0.006-0.209-0.006-0.313
					c0.006-0.108,0.01-0.205,0.029-0.324l0,0l0.01-0.037l0.133-0.41c0.049-0.135,0.109-0.27,0.164-0.406
					c0.119-0.268,0.252-0.537,0.43-0.785c0.088-0.127,0.178-0.254,0.287-0.367c0.102-0.123,0.227-0.225,0.348-0.334
					c0.131-0.1,0.266-0.197,0.416-0.273c0.148-0.084,0.305-0.148,0.471-0.191c0.08-0.03,0.164-0.051,0.25-0.063
					c0.082-0.018,0.168-0.031,0.254-0.032c0.168-0.012,0.34-0.008,0.502,0.011c0.166,0.018,0.326,0.054,0.48,0.098
					c0.156,0.045,0.305,0.1,0.443,0.168c0.287,0.129,0.545,0.291,0.787,0.47c0.119,0.094,0.23,0.192,0.342,0.29
					c0.113,0.105,0.211,0.205,0.322,0.328l0.043,0.047l0.006,0.018l0.146,0.33c0.045,0.109,0.104,0.211,0.129,0.334l0.092,0.355
					c0.029,0.117,0.025,0.251,0.037,0.371c0.016,0.12-0.008,0.248-0.029,0.373c-0.008,0.061-0.018,0.125-0.031,0.183l-0.07,0.174
					c-0.023,0.057-0.045,0.113-0.072,0.168L31.406,2.99c-0.037,0.051-0.064,0.104-0.104,0.148l-0.129,0.123
					c-0.08,0.084-0.176,0.15-0.268,0.217c-0.094,0.069-0.193,0.125-0.291,0.178c-0.1,0.058-0.205,0.102-0.307,0.146
					c-0.102,0.051-0.207,0.086-0.313,0.124C29.785,4,29.574,4.064,29.359,4.117C29.145,4.174,28.928,4.222,28.713,4.273z"/>
			</g>
		</g>
		<g>
			<path fill="#FFFFFF" d="M77.088,165.707c-5.508,1.359-11.02,2.699-16.531,4.015l-16.541,3.977l-33.123,7.773l-8.277,1.944
				l-8.289,1.898l-16.584,3.789l-16.582,3.795l-1.037,0.236l-0.262,0.06l-0.125,0.03c0.025-0.008-0.049,0.011-0.07,0.021
				c-0.15,0.039-0.301,0.094-0.453,0.146c-0.602,0.211-1.186,0.494-1.617,0.812c-0.213,0.158-0.367,0.334-0.426,0.447
				c-0.053,0.123-0.049,0.136-0.021,0.254c0.004,0.051,0.076,0.135,0.109,0.215c0.086,0.088,0.129,0.182,0.234,0.276
				c0.18,0.189,0.416,0.375,0.666,0.554c1.035,0.709,2.299,1.281,3.578,1.778c1.285,0.498,2.611,0.927,3.945,1.351l-0.555-0.014
				l55.256-13.923l0.311-0.077l0.287,0.143c0.961,0.465,2.006,0.902,3.033,1.308c1.037,0.406,2.086,0.783,3.143,1.135
				c1.055,0.354,2.125,0.674,3.197,0.976c1.074,0.301,2.158,0.569,3.248,0.819c1.086,0.244,2.176,0.469,3.279,0.658
				c0.547,0.104,1.102,0.184,1.652,0.268c0.553,0.088,1.105,0.163,1.66,0.225c1.105,0.147,2.217,0.238,3.33,0.324
				c1.115,0.069,2.227,0.123,3.346,0.132c4.461,0.054,8.936-0.413,13.268-1.497c0.547-0.119,1.084-0.26,1.619-0.422l1.611-0.466
				c1.049-0.378,2.127-0.697,3.15-1.138c0.518-0.215,1.043-0.414,1.551-0.638l1.521-0.71c1.023-0.457,1.982-1.041,2.979-1.555
				l-0.041,0.032c0.629-0.537,1.229-1.173,1.77-1.834c0.275-0.331,0.527-0.678,0.779-1.024c0.236-0.361,0.486-0.711,0.701-1.08
				c0.209-0.377,0.434-0.744,0.629-1.13l0.539-1.172l0.441-1.217c0.145-0.405,0.225-0.831,0.338-1.245
				c0.127-0.415,0.188-0.842,0.248-1.272c0.055-0.427,0.162-0.85,0.16-1.284l0.066-1.298c0.008-0.431-0.047-0.865-0.063-1.299
				c-0.029-0.431-0.041-0.869-0.135-1.293l-0.225-1.285c-0.053-0.434-0.221-0.84-0.326-1.264L77.088,165.707z M77.088,165.707
				l0.408,1.244c0.123,0.418,0.307,0.82,0.379,1.253l0.27,1.287c0.115,0.426,0.145,0.863,0.184,1.301
				c0.037,0.436,0.105,0.873,0.113,1.312l-0.016,1.318c0.018,0.444-0.074,0.877-0.117,1.314c-0.053,0.438-0.102,0.875-0.217,1.305
				c-0.105,0.425-0.178,0.865-0.314,1.285l-0.416,1.26l-0.523,1.22c-0.186,0.399-0.406,0.784-0.607,1.176
				c-0.217,0.387-0.463,0.758-0.691,1.135c-0.256,0.361-0.508,0.728-0.779,1.08c-0.549,0.701-1.127,1.359-1.809,1.977l-0.02,0.017
				l-0.025,0.014c-0.992,0.545-1.953,1.162-2.977,1.656l-1.523,0.767c-0.514,0.244-1.045,0.457-1.563,0.688
				c-1.031,0.483-2.117,0.84-3.178,1.25l-1.627,0.524c-0.541,0.178-1.088,0.339-1.643,0.476c-4.406,1.178-8.973,1.733-13.531,1.758
				c-1.143,0.012-2.281-0.028-3.42-0.078c-1.137-0.07-2.277-0.143-3.41-0.274c-0.566-0.052-1.133-0.121-1.695-0.201
				c-0.568-0.072-1.135-0.146-1.695-0.244c-1.125-0.174-2.248-0.385-3.367-0.616c-1.111-0.238-2.223-0.494-3.326-0.783
				c-1.105-0.291-2.205-0.597-3.293-0.943c-1.09-0.338-2.17-0.705-3.242-1.109c-1.076-0.404-2.125-0.816-3.201-1.318l0.598,0.062
				l-55.176,14.244l-0.277,0.07l-0.279-0.086c-1.373-0.42-2.74-0.871-4.098-1.406c-1.354-0.543-2.699-1.137-4.004-2.036
				c-0.322-0.234-0.648-0.49-0.955-0.812c-0.154-0.149-0.301-0.362-0.445-0.545c-0.133-0.231-0.27-0.441-0.352-0.736
				c-0.197-0.554-0.123-1.301,0.166-1.801c0.277-0.507,0.645-0.843,0.996-1.111c0.711-0.518,1.43-0.833,2.16-1.092
				c0.186-0.063,0.367-0.125,0.563-0.178l0.184-0.051l0.131-0.031l0.262-0.056l1.037-0.229l16.602-3.703l16.602-3.699l8.303-1.851
				l8.313-1.799l33.248-7.213l16.643-3.516C65.979,168.005,71.531,166.845,77.088,165.707z"/>
		</g>
		<g>
			<path fill="#FFFFFF" d="M63.865,60.998c0.846-1.21,1.5-2.555,1.969-3.954c0.441-1.398,0.707-2.882,0.59-4.355
				c-0.111-1.467-0.568-2.91-1.352-4.158c-0.781-1.254-1.854-2.302-3.047-3.163c-1.195-0.86-2.492-1.573-3.854-2.138
				c-0.342-0.14-0.676-0.297-1.02-0.424l-1.041-0.367c-0.688-0.265-1.404-0.443-2.111-0.651c-1.42-0.395-2.859-0.72-4.313-0.972
				l-1.084-0.201l-1.096-0.154c-0.732-0.088-1.455-0.232-2.186-0.27c-1.465-0.094-2.941-0.088-4.406-0.013
				c-1.465,0.083-2.928,0.242-4.369,0.498c-2.881,0.518-5.707,1.438-8.186,2.945c-1.238,0.748-2.354,1.685-3.311,2.754
				c-0.945,1.074-1.773,2.268-2.314,3.595c-0.549,1.321-0.975,2.704-1.137,4.137c-0.137,0.705-0.137,1.432-0.189,2.151
				c-0.027,0.72,0.021,1.447,0.031,2.166v0.013l-0.006,0.068c0,0.056,0.008,0.172,0.016,0.277c0.006,0.105,0.016,0.213,0.037,0.326
				c0.045,0.222,0.066,0.445,0.127,0.669l0.172,0.677c0.053,0.226,0.131,0.448,0.207,0.673c0.164,0.444,0.283,0.899,0.479,1.336
				l0.547,1.317c0.084,0.224,0.199,0.431,0.301,0.648l0.309,0.647l0.314,0.646c0.107,0.212,0.201,0.434,0.32,0.641l1.385,2.523
				l-0.047-0.074c0.357,0.5,0.578,0.953,0.791,1.459c0.102,0.252,0.201,0.502,0.271,0.76c0.08,0.26,0.162,0.518,0.203,0.781
				c0.125,0.527,0.158,1.066,0.199,1.602c-0.023,0.538-0.008,1.082-0.115,1.609c-0.326,2.135-1.363,4.072-2.684,5.668
				c-0.309,0.424-0.689,0.77-1.031,1.158c-0.18,0.184-0.354,0.379-0.535,0.559l-0.576,0.512c-0.389,0.338-0.758,0.687-1.166,1.014
				c-0.354,0.288-0.709,0.608-1.045,0.94c-1.355,1.336-2.502,2.89-3.35,4.576c-0.857,1.684-1.359,3.527-1.48,5.396
				c-0.105,1.871,0.162,3.766,0.77,5.563c0.605,1.795,1.494,3.51,2.563,5.115l0.402,0.602l0.1,0.148l0.027,0.037
				c-0.029-0.037,0.01,0.014,0.01,0.014l0.053,0.067l0.221,0.272c0.307,0.37,0.629,0.732,0.955,1.088
				c0.656,0.713,1.346,1.398,2.063,2.043c1.441,1.293,3.004,2.448,4.686,3.336c0.84,0.446,1.713,0.801,2.602,1.086
				c0.898,0.274,1.814,0.425,2.734,0.479c0.916,0.015,1.832-0.078,2.719-0.318c0.871-0.27,1.736-0.615,2.51-1.135
				c1.59-0.989,2.926-2.387,4.072-3.928c1.232-1.682,2.758-3.063,4.395-4.289c1.646-1.211,3.473-2.199,5.418-2.855
				c1.945-0.667,4.02-0.963,6.068-0.866c2.053,0.086,4.063,0.6,5.947,1.36l-0.07-0.022c1.221,0.26,2.518,0.41,3.785,0.45
				c1.277,0.041,2.561-0.016,3.813-0.24c1.25-0.225,2.473-0.6,3.58-1.195c1.111-0.587,2.08-1.436,2.805-2.461
				c0.727-1.028,1.211-2.222,1.482-3.469c0.252-1.252,0.332-2.537,0.283-3.826c-0.031-0.643-0.088-1.286-0.16-1.928l-0.146-0.958
				c-0.049-0.326-0.084-0.637-0.178-0.939c-0.361-1.236-0.834-2.45-1.424-3.6c-0.588-1.156-1.277-2.253-2.045-3.297
				c-0.416-0.494-0.791-1.025-1.252-1.48l-0.668-0.705l-0.721-0.654c-0.465-0.454-1.014-0.805-1.521-1.208
				c-0.535-0.367-1.098-0.693-1.646-1.031c-1.16-0.582-2.371-1.09-3.451-1.824c-1.086-0.72-2.086-1.58-2.906-2.595
				c-0.799-1.023-1.418-2.226-1.598-3.523c-0.213-1.295,0.035-2.621,0.496-3.832C62.34,63.12,63.059,62.014,63.865,60.998z
				 M63.865,60.998c-0.805,1.021-1.514,2.127-1.996,3.338c-0.455,1.207-0.695,2.533-0.477,3.82c0.176,1.291,0.801,2.482,1.604,3.495
				c0.816,1.009,1.816,1.858,2.9,2.571c1.076,0.734,2.291,1.215,3.465,1.791c0.559,0.33,1.131,0.65,1.668,1.018
				c0.518,0.398,1.076,0.742,1.551,1.196l0.736,0.648L74,79.578c0.473,0.455,0.857,0.988,1.283,1.481
				c0.785,1.044,1.5,2.146,2.105,3.304c0.605,1.16,1.119,2.369,1.508,3.625c0.109,0.318,0.158,0.655,0.211,0.969l0.168,0.972
				c0.086,0.649,0.156,1.299,0.203,1.953c0.074,1.312,0.023,2.639-0.211,3.946c-0.254,1.3-0.738,2.578-1.494,3.69
				c-0.75,1.116-1.779,2.052-2.953,2.704c-1.172,0.664-2.459,1.086-3.762,1.349c-1.309,0.264-2.641,0.347-3.963,0.335
				c-1.328-0.02-2.637-0.139-3.965-0.393l-0.025-0.004l-0.043-0.016c-1.816-0.688-3.729-1.131-5.652-1.172
				c-1.92-0.051-3.846,0.268-5.654,0.928c-1.807,0.653-3.502,1.613-5.033,2.789c-1.52,1.183-2.945,2.539-4.031,4.096
				c-1.184,1.664-2.623,3.208-4.406,4.356c-0.875,0.595-1.869,1.015-2.887,1.342c-1.029,0.295-2.107,0.424-3.176,0.416
				c-1.07-0.047-2.125-0.212-3.137-0.507c-1.008-0.306-1.982-0.696-2.902-1.178c-1.84-0.963-3.5-2.189-5.025-3.545
				c-0.766-0.677-1.49-1.394-2.188-2.142c-0.344-0.373-0.686-0.754-1.016-1.15l-0.248-0.301l-0.063-0.08l-0.049-0.065l-0.027-0.037
				l-0.109-0.158l-0.43-0.637c-1.137-1.697-2.107-3.539-2.758-5.516c-0.662-1.97-0.955-4.092-0.828-6.187
				c0.145-2.098,0.723-4.164,1.674-6.02c0.941-1.863,2.209-3.539,3.703-4.975c0.377-0.36,0.764-0.706,1.188-1.035
				c0.371-0.295,0.729-0.625,1.096-0.934l0.543-0.469c0.178-0.166,0.336-0.343,0.498-0.514c0.318-0.354,0.689-0.672,0.967-1.053
				c1.229-1.446,2.139-3.139,2.436-4.946c0.102-0.449,0.1-0.907,0.127-1.359c-0.027-0.454-0.043-0.91-0.143-1.357
				c-0.027-0.227-0.094-0.445-0.156-0.666c-0.051-0.223-0.135-0.431-0.215-0.649c-0.158-0.411-0.379-0.857-0.596-1.171l-0.037-0.059
				l-0.01-0.016l-1.355-2.602c-0.119-0.211-0.213-0.439-0.318-0.662l-0.307-0.67l-0.305-0.67c-0.098-0.225-0.213-0.442-0.301-0.674
				l-0.533-1.379c-0.197-0.453-0.313-0.941-0.471-1.41c-0.076-0.235-0.154-0.47-0.205-0.721l-0.172-0.73
				c-0.057-0.248-0.082-0.51-0.123-0.761c-0.025-0.125-0.035-0.262-0.039-0.399c-0.01-0.134-0.02-0.26-0.006-0.449l-0.004,0.08
				c0.012-0.752-0.025-1.506,0.02-2.26c0.074-0.752,0.088-1.51,0.246-2.256c0.203-1.5,0.682-2.961,1.293-4.35
				c0.611-1.396,1.514-2.65,2.533-3.766c1.035-1.106,2.23-2.066,3.537-2.814c2.607-1.518,5.52-2.393,8.451-2.857
				c1.475-0.227,2.955-0.362,4.438-0.413c1.484-0.043,2.971-0.022,4.451,0.108c0.746,0.053,1.473,0.211,2.203,0.316l1.096,0.173
				l1.09,0.217c1.455,0.273,2.893,0.619,4.318,1.029c0.705,0.219,1.42,0.406,2.107,0.68l1.045,0.383
				c0.346,0.133,0.68,0.295,1.021,0.438c1.357,0.584,2.654,1.321,3.844,2.199c1.189,0.881,2.271,1.932,3.047,3.199
				c0.783,1.256,1.238,2.709,1.34,4.186c0.113,1.477-0.158,2.961-0.611,4.366C65.375,58.452,64.715,59.791,63.865,60.998z"/>
		</g>
		<g>
			<path fill="#FFFFFF" d="M44.158,88.998c0,0-0.188-0.065-0.541-0.196c-0.178-0.055-0.383-0.159-0.629-0.281
				c-0.248-0.11-0.512-0.273-0.807-0.462c-0.578-0.395-1.25-0.936-1.869-1.696c-0.617-0.764-1.178-1.746-1.535-2.916
				c-0.35-1.174-0.486-2.533-0.281-3.955c0.066-0.355,0.129-0.694,0.238-1.077c0.111-0.34,0.188-0.67,0.357-1.035
				c0.287-0.737,0.697-1.388,1.176-2.037c0.496-0.633,1.09-1.209,1.756-1.715c0.682-0.48,1.439-0.875,2.25-1.169
				c0.816-0.278,1.686-0.434,2.566-0.453c0.879,0,1.76,0.135,2.611,0.379l0.6,0.229c0.176,0.061,0.393,0.176,0.598,0.28
				c0.432,0.197,0.781,0.45,1.152,0.692c0.707,0.526,1.326,1.153,1.834,1.852c0.492,0.706,0.879,1.469,1.162,2.258
				c0.246,0.798,0.398,1.611,0.436,2.412c0.064,1.598-0.322,3.151-0.947,4.398c-0.668,1.307-1.557,2.316-2.523,3.076
				c-0.967,0.75-1.998,1.227-2.938,1.49c-0.951,0.263-1.813,0.316-2.508,0.301c-0.35-0.016-0.664-0.033-0.928-0.088
				c-0.27-0.043-0.498-0.078-0.678-0.136C44.352,89.051,44.158,88.998,44.158,88.998z M44.158,88.998c0,0,0.193,0.049,0.557,0.14
				c0.18,0.055,0.408,0.084,0.678,0.121c0.266,0.053,0.576,0.06,0.924,0.072c0.695,0,1.553-0.064,2.467-0.388
				c0.904-0.316,1.891-0.828,2.744-1.641c0.857-0.789,1.609-1.865,2.063-3.066c0.477-1.264,0.633-2.639,0.453-4.025
				c-0.098-0.69-0.289-1.371-0.559-2.024c-0.289-0.646-0.641-1.261-1.082-1.82c-0.459-0.542-0.977-1.032-1.551-1.453
				c-0.303-0.184-0.602-0.395-0.902-0.521c-0.15-0.073-0.285-0.152-0.49-0.217l-0.518-0.192c-0.682-0.211-1.387-0.332-2.098-0.35
				c-0.711,0.014-1.42,0.11-2.107,0.286c-0.682,0.203-1.326,0.504-1.939,0.861c-0.592,0.379-1.145,0.822-1.623,1.33
				c-0.457,0.514-0.906,1.072-1.201,1.657c-0.174,0.27-0.303,0.625-0.445,0.942c-0.113,0.285-0.215,0.623-0.309,0.932
				c-0.33,1.272-0.336,2.564-0.094,3.712c0.229,1.155,0.736,2.14,1.293,2.926c0.557,0.791,1.221,1.34,1.789,1.74
				c0.287,0.194,0.549,0.365,0.795,0.477c0.24,0.127,0.443,0.234,0.623,0.293C43.973,88.93,44.158,88.998,44.158,88.998z"/>
		</g>
		
			<text transform="matrix(0.9906 -0.1371 0.1371 0.9906 -59.5527 172.0693)" fill="#FFFFFF" font-family="'UVNVan'" font-size="25.8707">Jollibee</text>
	</g>
</g>
<path fill="#00A3B5" d="M168.4,129.388c0,21.545-17.467,39.01-39.014,39.01H39.012C17.465,168.398,0,150.934,0,129.388V39.011
	C0,17.466,17.465,0,39.012,0h90.375C150.934,0,168.4,17.466,168.4,39.011V129.388z"/>
<circle fill="none" stroke="#FFFFFF" stroke-width="8" stroke-miterlimit="10" cx="83.239" cy="88.378" r="48.765"/>
<g>
	<path fill="#FFFFFF" d="M82.508,117.278c-16.07,0-29.145-13.074-29.145-29.143c0-16.072,13.074-29.144,29.145-29.144
		s29.145,13.073,29.145,29.144C111.652,104.204,98.578,117.278,82.508,117.278z M82.508,61.199
		c-14.852,0-26.936,12.083-26.936,26.936c0,14.851,12.084,26.935,26.936,26.935s26.934-12.084,26.934-26.935
		C109.441,73.282,97.359,61.199,82.508,61.199z"/>
</g>
<path fill="#FFFFFF" d="M152.922,25.543c-0.213-3.191-1.068-2.625-1.068-2.625c-1.621,4.426-1.262,28.887-1.262,28.887
	c-0.129,0.652-0.619,0.981-1.236,1.123c-0.123-2.463-1.023-20.625-1.184-27.23c0,0-0.285-3.149-0.846-2.924
	c0,0-0.564-0.394-0.619,2.813c-0.049,3.038,0.061,24.277-0.408,27.106c-0.125-0.032-0.234-0.064-0.314-0.087v-0.049
	c0,0-0.029,0.008-0.086,0.024c-0.055-0.016-0.086-0.024-0.086-0.024v0.048c-0.076,0.024-0.178,0.056-0.295,0.081
	c-0.162-3.226-1.014-20.574-1.174-26.986c0,0-0.281-3.15-0.848-2.925c0,0-0.563-0.393-0.613,2.813
	c-0.055,3.15,0.068,25.813-0.461,27.34c-0.611-0.14-1.086-0.474-1.215-1.117c0,0,0.324-24.462-1.299-28.886
	c0,0-0.855-0.565-1.064,2.625c-0.213,3.191-4.035,30.01,0.75,35.938c4.775,5.928,4.951,5.541,4.693,10.123
	c-0.25,4.573-3.902,35.194-2.172,70.448c0,0,0.436,14.482,1.887,14.48l1.877-0.002c0.115,0,0.172,0,0.172,0l1.877-0.001
	c1.449,0,1.867-14.482,1.867-14.482c1.684-35.256-2.006-65.874-2.262-70.445c-0.258-4.58-0.088-4.195,4.686-10.129
	C156.99,55.546,153.137,28.732,152.922,25.543z"/>
<path fill="#FFFFFF" d="M17.561,81.096c0,0-7.09-57.429-0.225-67.895c0,0,9.342,1.013,10.693,46.703c0,0-0.037,4.761-3.262,11.139
	c-1.852,3.656-2.258,7.541-2.277,10.226c1.063,12.584,2.615,35.508,1.387,60.895c0,0-0.426,14.482-1.875,14.482h-1.879
	c-0.113,0-0.172,0-0.172,0h-1.879c-1.447,0-1.871-14.482-1.871-14.482c-1.238-25.488,0.334-48.491,1.4-61.044L17.561,81.096z"/>
</svg>
