<?xml version="1.0" encoding="utf-8"?>
<!-- Generator: Adobe Illustrator 16.0.0, SVG Export Plug-In . SVG Version: 6.00 Build 0)  -->
<!DOCTYPE svg PUBLIC "-//W3C//DTD SVG 1.1//EN" "http://www.w3.org/Graphics/SVG/1.1/DTD/svg11.dtd">
<svg version="1.1" id="Layer_1" xmlns="http://www.w3.org/2000/svg" xmlns:xlink="http://www.w3.org/1999/xlink" x="0px" y="0px"
	 width="168.398px" height="168.399px" viewBox="0 0 168.398 168.399" enable-background="new 0 0 168.398 168.399"
	 xml:space="preserve">
<g opacity="0.3">
	<defs>
		<rect id="SVGID_135_" x="-1582.449" y="-829.65" opacity="0.3" width="1366.566" height="651.97"/>
	</defs>
	<clipPath id="SVGID_2_">
		<use xlink:href="#SVGID_135_"  overflow="visible"/>
	</clipPath>
	<g clip-path="url(#SVGID_2_)">
	</g>
</g>
<g>
	<path fill="#00A3B5" d="M168.398,129.387c0,21.546-17.465,39.012-39.012,39.012H39.01C17.463,168.399,0,150.934,0,129.387V39.011
		C0,17.466,17.463,0,39.01,0h90.377c21.547,0,39.012,17.466,39.012,39.011V129.387z"/>
	<g>
		<path id="shop_3_" fill="#FFFFFF" d="M140.471,66.659L129.51,52.051c-0.43-0.574-0.936-1.071-1.463-1.545V33.043
			c0-4.033-3.273-7.307-7.307-7.307H47.66c-4.039,0-7.311,3.274-7.311,7.307V50.51c-0.525,0.47-1.033,0.964-1.461,1.533
			L27.932,66.657c-1.418,1.886-2.197,4.221-2.197,6.58v3.655c0,6.043,4.918,10.961,10.963,10.961l0,0v47.502
			c0,4.033,3.273,7.308,7.309,7.308h80.389c4.033,0,7.307-3.274,7.307-7.308V87.854l0,0c6.045,0,10.963-4.918,10.963-10.961v-3.655
			C142.664,70.877,141.887,68.542,140.471,66.659z M120.74,33.043v14.616H47.66l0,0V33.043H120.74z M62.98,80.544H47.674
			l14.615-25.578h8L62.98,80.544z M74.094,54.967h8.279v25.578H66.785L74.094,54.967z M86.027,54.967h8.279l7.309,25.578H86.027
			V54.967z M98.102,54.967h8l14.615,25.578H105.41L98.102,54.967z M33.043,76.892v-3.655c0-0.792,0.256-1.56,0.729-2.192
			L44.736,56.43c0.689-0.922,1.771-1.463,2.924-1.463h10.42L43.465,80.544h-6.768C34.68,80.544,33.043,78.913,33.043,76.892z
			 M98.814,135.355H71.412V98.815h27.402V135.355z M124.395,135.355h-21.926V98.815c0-2.021-1.639-3.654-3.654-3.654H71.412
			c-2.021,0-3.656,1.633-3.656,3.654v36.541h-23.75V87.854h80.389V135.355z M135.354,76.892c0,2.021-1.631,3.652-3.652,3.652h-6.773
			l-14.617-25.578h10.43l0,0c1.146,0,2.232,0.542,2.918,1.463l10.963,14.614c0.479,0.632,0.732,1.4,0.732,2.192V76.892z"/>
	</g>
</g>
</svg>
